<svg xmlns="http://www.w3.org/2000/svg" viewBox="0 0 40.035 38">
  <g id="_3d" data-name="3d" transform="translate(0 -0.5)">
    <path id="Path_88" data-name="Path 88" d="M342.782,346.5a.782.782,0,1,0,.782.782A.782.782,0,0,0,342.782,346.5Zm0,0" transform="translate(-315.259 -318.942)"/>
    <path id="Path_89" data-name="Path 89" d="M247.564,161.282a.782.782,0,1,0-.782.782A.782.782,0,0,0,247.564,161.282Zm0,0" transform="translate(-226.765 -147.489)"/>
    <path id="Path_90" data-name="Path 90" d="M150.782,348.06a.782.782,0,1,0-.782-.782A.782.782,0,0,0,150.782,348.06Zm0,0" transform="translate(-138.272 -318.942)"/>
    <path id="Path_91" data-name="Path 91" d="M39.57,32.834l-4.227-1.878V13.793a.786.786,0,0,0-.48-.722L20.8,7.022V1.282a.782.782,0,0,0-1.564,0v5.74L5.172,13.071a.787.787,0,0,0-.48.722V30.956L.464,32.834A.782.782,0,0,0,1.1,34.263l4.379-1.946,14.23,6.12a.794.794,0,0,0,.618,0l14.23-6.12,4.379,1.946a.782.782,0,0,0,.635-1.429ZM19.235,8.725v1.94a.782.782,0,1,0,1.564,0V8.725l11.783,5.068L20.017,19.2l-12.565-5.4ZM10.367,29.289a.782.782,0,0,0-1.032-.4l-3.08,1.369V14.98l12.98,5.583V36.532L7.425,31.452,9.97,30.322A.782.782,0,0,0,10.367,29.289ZM20.8,36.532V20.563l12.98-5.583V30.261L30.7,28.892a.782.782,0,0,0-.635,1.429l2.545,1.131Zm0,0"/>
  </g>
</svg>
