<svg xmlns="http://www.w3.org/2000/svg" viewBox="0 0 23.705 25.901">
  <defs>
    <style>
      .cls-1 {
        fill: #1d1f21;
      }
    </style>
  </defs>
  <g id="front-of-bus" transform="translate(-1.926 0)">
    <path id="Path_87" data-name="Path 87" class="cls-1" d="M24.429,6.333c-.211-2.068-.548-3.677-1.081-4.31-2.2-2.6-17.591-2.792-19.338,0a12.4,12.4,0,0,0-.929,4.313A1.3,1.3,0,0,0,1.926,7.629v2.533a1.305,1.305,0,0,0,.855,1.223c-.118,3.989-.022,8.151.154,10.221,0,1.6,1.073,1.333,1.073,1.333H5.015v1.725A1.436,1.436,0,0,0,6.589,25.9a1.437,1.437,0,0,0,1.575-1.238V22.938H19.869v1.725A1.436,1.436,0,0,0,21.443,25.9a1.436,1.436,0,0,0,1.574-1.238V22.938h.331s1.263.173,1.344-.579c0-2.064.13-6.639.023-10.957a1.3,1.3,0,0,0,.916-1.241V7.629A1.3,1.3,0,0,0,24.429,6.333ZM7.769,2.394h11.82V4.182H7.769ZM7.938,20.9a1.68,1.68,0,1,1,1.68-1.68A1.68,1.68,0,0,1,7.938,20.9Zm11.588,0a1.68,1.68,0,1,1,1.68-1.68A1.681,1.681,0,0,1,19.525,20.9Zm2.136-7.353H5.7V5.174H21.661Z"/>
  </g>
</svg>
