<svg xmlns="http://www.w3.org/2000/svg" viewBox="0 0 23.125 19.161">
  <defs>
    <style>
      .cls-1 {
        fill: #1d1f21;
      }
    </style>
  </defs>
  <g id="car-compact" transform="translate(-5 1)">
    <path id="Path_73" data-name="Path 73" class="cls-1" d="M23.125,49.013a3.031,3.031,0,0,0-.288-1.287c-.019-.1-.041-.2-.068-.3L20.76,42.444l-.014-.045c-.7-2.093-1.7-4.029-4.239-4.029h-9.7c-2.6,0-3.516,1.985-4.235,4.018l-2.1,4.99A3.072,3.072,0,0,0,0,49.013v1.549a3.012,3.012,0,0,0,.082.7A1.217,1.217,0,0,0,0,51.7v4.607a1.223,1.223,0,0,0,1.223,1.223H3.762a1.223,1.223,0,0,0,1.223-1.223V54h13.3v2.3a1.223,1.223,0,0,0,1.223,1.223H21.9a1.223,1.223,0,0,0,1.223-1.223V51.7a1.225,1.225,0,0,0-.082-.438,3.026,3.026,0,0,0,.082-.7V49.014h0ZM4.068,42.888c.8-2.257,1.443-2.946,2.744-2.946h9.695c1.291,0,2.01.768,2.741,2.936l1.466,2.971a4.486,4.486,0,0,0-1.559-.276H3.97a4.507,4.507,0,0,0-1.414.225Zm1.259,8.263H2.649a.874.874,0,0,1,0-1.747H5.328a.874.874,0,0,1,0,1.747Zm9.462-.175H8.559a.553.553,0,0,1,0-1.106h6.23a.553.553,0,1,1,0,1.106Zm5.619.175H17.73a.874.874,0,0,1,0-1.747h2.678a.874.874,0,1,1,0,1.747Z" transform="translate(5 -39.37)"/>
  </g>
</svg>
