<svg xmlns="http://www.w3.org/2000/svg" viewBox="0 0 16.117 34.382">
  <defs>
    <style>
      .cls-1 {
        fill: #1d1f21;
      }
    </style>
  </defs>
  <g id="pedestrian-man" transform="translate(-24.874)">
    <path id="Path_85" data-name="Path 85" class="cls-1" d="M40.7,32.545l-3.443-3.8a1.953,1.953,0,0,1-.421-1.043l-.127-3.941v-.114a1.1,1.1,0,0,0-1.1-1.1h-4.71a1.638,1.638,0,0,0-1.379.875L24.978,33.06a1.082,1.082,0,0,0,.543,1.453l.669.295a1.113,1.113,0,0,0,.452.095h0a1.154,1.154,0,0,0,1.026-.626l2.125-4.228V34.3c-.009.025-.022.047-.03.072L26.172,45.619A1.762,1.762,0,0,0,27.4,47.868l.24.065a1.852,1.852,0,0,0,.484.064,1.93,1.93,0,0,0,1.826-1.323L33.3,36.163l1.19,2.916a12.176,12.176,0,0,1,.685,2.72l.569,5.368a1.618,1.618,0,0,0,1.616,1.483,1.783,1.783,0,0,0,.417-.05l.242-.059a2.054,2.054,0,0,0,1.517-2.206L38.7,39.79a12.907,12.907,0,0,0-.8-2.9l-1.139-2.623c-.015-.034-.036-.065-.053-.1V32.389l2.052,2.143a1.059,1.059,0,0,0,1.544-.006l.38-.4A1.182,1.182,0,0,0,40.7,32.545Z" transform="translate(0 -14.269)"/>
    <path id="Path_86" data-name="Path 86" class="cls-1" d="M42.191,7.345a3.672,3.672,0,1,0-3.672-3.673A3.677,3.677,0,0,0,42.191,7.345Z" transform="translate(-8.635)"/>
  </g>
</svg>
