<svg xmlns="http://www.w3.org/2000/svg" viewBox="0 0 55.548 48.31">
  <defs>
    <style>
      .cls-1 {
        fill: #e8573e;
      }
    </style>
  </defs>
  <g id="camera" transform="translate(0.001 -0.161)">
    <path id="Path_77" data-name="Path 77" class="cls-1" d="M286.324,280.164h1.858v1.858h-1.858Zm0,0" transform="translate(-253.074 -247.487)"/>
    <path id="Path_78" data-name="Path 78" class="cls-1" d="M54.618,41.039H37.9V38.006a6.5,6.5,0,0,0,2.787-5.329V27.1l13.577-2.909a.929.929,0,0,0,.714-1.1L51.953,9.037a6.014,6.014,0,0,1,1.292-.453l.973-.231a.929.929,0,0,0,.694-1.1L53.551.9a.929.929,0,0,0-1.1-.714L.734,11.246A.929.929,0,0,0,.52,12.989L8.939,17.1a9.129,9.129,0,0,0,6.41,15.092.926.926,0,0,0,.558.193.865.865,0,0,0,.2-.021l11.573-2.479v2.8a6.5,6.5,0,0,0,2.787,5.329v5.82a4.651,4.651,0,0,0,4.645,4.645h19.51a.929.929,0,0,0,.929-.929V41.968A.929.929,0,0,0,54.618,41.039ZM38.824,28.961H31.975l6.849-1.467ZM16.641,30.345h-.019L14.34,19.729,18.587,21.8l1.673,7.769Zm3.934-8.134,19.619-4.2-4.024,8.15-14.1,3.019Zm32.385.355-14.474,3.1,4.024-8.15,5.313-1.137a.928.928,0,0,0,.724-1.037A6.068,6.068,0,0,1,50.3,10.194ZM51.928,2.194l.977,4.561-.077.018a7.8,7.8,0,0,0-2.26.9.89.89,0,0,0-.279.163,7.98,7.98,0,0,0-3.653,6.9l-26.622,5.7L3.756,12.5ZM8.735,24.6A7.276,7.276,0,0,1,10.7,17.953l1.569.764a.889.889,0,0,0,0,.22L14.7,30.249A7.3,7.3,0,0,1,8.735,24.6Zm20.8,8.076V30.819h9.29v1.858a4.645,4.645,0,0,1-9.29,0Zm4.645,6.5a6.479,6.479,0,0,0,1.858-.279v2.137H32.321V38.9A6.479,6.479,0,0,0,34.179,39.181Zm19.51,7.432H35.108a2.787,2.787,0,0,1-2.787-2.787V42.9H53.689Zm0,0" transform="translate(0 0)"/>
  </g>
</svg>
