<svg xmlns="http://www.w3.org/2000/svg" viewBox="0 0 19.529 19.529">
  <g id="expand-4" transform="translate(0 0)">
    <path id="Path_14" data-name="Path 14" d="M42.462,35.627a.325.325,0,0,0-.651,0v5.724L34.555,34.1a.325.325,0,0,0-.46.46l7.256,7.256H35.627a.325.325,0,0,0,0,.651h6.51a.329.329,0,0,0,.124-.025.327.327,0,0,0,.2-.3Z" transform="translate(-22.934 -22.934)"/>
    <path id="Path_15" data-name="Path 15" d="M1.111.651H6.835a.325.325,0,0,0,0-.651H.325A.329.329,0,0,0,.2.025.324.324,0,0,0,.025.2.329.329,0,0,0,0,.325v6.51a.325.325,0,0,0,.651,0V1.111L7.907,8.367a.325.325,0,0,0,.46-.46Z"/>
  </g>
</svg>
