<?xml version="1.0" encoding="utf-8"?>
<!-- Generator: Adobe Illustrator 21.1.0, SVG Export Plug-In . SVG Version: 6.00 Build 0)  -->
<svg version="1.1" baseProfile="basic" id="Layer_1"
	 xmlns="http://www.w3.org/2000/svg" xmlns:xlink="http://www.w3.org/1999/xlink" x="0px" y="0px" viewBox="0 0 16 16"
	 xml:space="preserve">
<style type="text/css">
	.st0{fill:#FFFFFF;}
	.st1{fill:#125D77;}
	.st2{fill:#E8573E;}
	.st3{fill:#105D75;}
</style>
<g>
	<path class="st0" d="M8,0L8,0C3.6,0,0,3.6,0,8c0,4.4,3.6,8,8,8c4.4,0,8-3.6,8-8C16,3.6,12.4,0,8,0"/>
	<path class="st0" d="M8,0L8,0C3.6,0,0,3.6,0,8c0,4.4,3.6,8,8,8c4.4,0,8-3.6,8-8C16,3.6,12.4,0,8,0"/>
	<path class="st1" d="M8.1,11.4c1.7,0,3.5-0.5,3.5-1.4c0-0.9-1.7-1.4-3.5-1.4C6.4,8.5,4.6,9,4.6,10C4.6,10.9,6.4,11.4,8.1,11.4
		 M5,10c0-0.4,1.2-1,3.1-1c1.9,0,3.1,0.6,3.1,1c0,0.4-1.2,1-3.1,1C6.2,11,5,10.4,5,10"/>
	<path class="st1" d="M12.4,9.1c0,0-0.1,0-0.1,0c0,0-0.1,0.1-0.1,0.1c0,0,0,0.1,0,0.1c0,0,0.1,0.1,0.1,0.1c0.7,0.3,1.1,0.6,1.1,1
		c0,0.3-0.4,0.7-1.1,1c-1,0.4-2.6,0.7-4.2,0.7c-1.6,0-3.1-0.2-4.1-0.6c-0.8-0.3-1.2-0.7-1.2-1c0-0.4,0.4-0.7,1.2-1
		c0.1,0,0.1-0.1,0.1-0.2C4,9.2,4,9.1,4,9.1c0,0-0.1,0-0.1,0c-0.9,0.4-1.4,0.8-1.4,1.4c0,0.5,0.5,1,1.4,1.4c1.1,0.4,2.6,0.7,4.2,0.7
		c1.7,0,3.3-0.3,4.4-0.7c0.8-0.4,1.3-0.8,1.3-1.3C13.7,10,13.2,9.5,12.4,9.1"/>
	<path class="st2" d="M10,9.6c0-0.4-0.1-0.8-0.2-1.1c0,0,0-0.1,0-0.1C9.5,6.8,9,5.8,8.4,5.6V4.1h0c0,0,0,0,0,0l0-2
		c0,0-0.1-0.1-0.2-0.1S8,2.1,8,2.2h0l0,2c0,0,0,0,0,0h0v1.5C7.4,5.8,6.7,6.8,6.4,8.4c0,0,0,0.1,0,0.1C6.3,8.9,6.3,9.3,6.2,9.6
		c0,0,0,0.1,0,0.1c0.1,0.4,0.9,0.6,1.9,0.6c1,0,1.8-0.3,1.9-0.6C10,9.7,10,9.7,10,9.6 M7.3,9.3c0.2,0,0.5,0.1,0.8,0.1
		c0.3,0,0.5,0,0.8-0.1c0.3,0,0.5-0.1,0.7-0.2c0,0.2,0.1,0.4,0.1,0.5l0,0C9.5,9.8,9.1,10,8.1,10c-1,0-1.4-0.2-1.5-0.3l0,0
		c0-0.1,0-0.2,0-0.3c0-0.1,0-0.2,0-0.3C6.8,9.2,7.1,9.3,7.3,9.3"/>
</g>
</svg>
