<?xml version="1.0" encoding="utf-8"?>
<!-- Generator: Adobe Illustrator 21.1.0, SVG Export Plug-In . SVG Version: 6.00 Build 0)  -->
<svg version="1.1" baseProfile="basic" id="Layer_1"
	 xmlns="http://www.w3.org/2000/svg" xmlns:xlink="http://www.w3.org/1999/xlink" x="0px" y="0px" viewBox="0 0 32 32"
	 xml:space="preserve">
<style type="text/css">
	.st0{fill:#FFFFFF;}
	.st1{fill:#125D77;}
	.st2{fill:#E8573E;}
	.st3{fill:#105D75;}
</style>
<g>
	<path class="st1" d="M16,0L16,0C7.2,0,0,7.2,0,16c0,8.8,7.2,16,16,16c8.8,0,16-7.2,16-16C32,7.2,24.8,0,16,0"/>
	<path class="st0" d="M16.3,22.8c3.5,0,7-1,7-2.9s-3.5-2.9-7-2.9c-3.5,0-7,1-7,2.9S12.8,22.8,16.3,22.8 M10,19.9
		c0-0.9,2.4-2.1,6.2-2.1c3.9,0,6.2,1.2,6.2,2.1c0,0.9-2.4,2.1-6.2,2.1C12.4,22,10,20.8,10,19.9"/>
	<path class="st0" d="M24.9,18.2c-0.1,0-0.2,0-0.3,0c-0.1,0-0.2,0.1-0.2,0.2c0,0.1,0,0.2,0,0.3c0,0.1,0.1,0.2,0.2,0.2
		c1.4,0.6,2.2,1.3,2.2,2c0,0.7-0.8,1.4-2.1,2c-2.1,0.9-5.1,1.4-8.5,1.4c-3.2,0-6.2-0.5-8.3-1.3c-1.5-0.6-2.3-1.3-2.3-2.1
		c0-0.7,0.8-1.4,2.3-2.1c0.2-0.1,0.3-0.3,0.2-0.5c0-0.1-0.1-0.2-0.2-0.2c-0.1,0-0.2,0-0.3,0c-1.8,0.7-2.8,1.7-2.8,2.8s1,2,2.8,2.7
		c2.1,0.9,5.3,1.4,8.5,1.4c3.4,0,6.6-0.5,8.8-1.5c1.7-0.7,2.6-1.6,2.6-2.7C27.6,19.9,26.7,19,24.9,18.2"/>
	<path class="st0" d="M20.1,19.2c-0.1-0.8-0.2-1.5-0.3-2.2c0-0.1,0-0.1,0-0.2c-0.7-3.2-1.6-5.3-2.9-5.6l0-3h0c0,0,0,0,0,0l0-4h0
		c0-0.1-0.2-0.2-0.4-0.2c-0.2,0-0.4,0.1-0.4,0.2h0l0,4c0,0,0,0,0,0h0v3c-1.3,0.3-2.5,2.4-3.2,5.6c0,0.1,0,0.1,0,0.2
		c-0.1,0.7-0.3,1.4-0.3,2.2c0,0.1,0,0.2,0,0.3c0.1,0.7,1.8,1.3,3.8,1.3c2,0,3.7-0.6,3.8-1.3C20.1,19.4,20.1,19.3,20.1,19.2
		 M14.7,18.6c0.5,0.1,1,0.1,1.6,0.1c0.6,0,1.1,0,1.6-0.1c0.5-0.1,1-0.2,1.3-0.4c0.1,0.4,0.1,0.9,0.1,1.1l0,0
		c-0.2,0.2-1.1,0.7-3.1,0.7c-1.9,0-2.9-0.5-3.1-0.7l0,0c0-0.1,0-0.3,0.1-0.6c0-0.2,0-0.4,0.1-0.5C13.7,18.4,14.2,18.5,14.7,18.6"/>
</g>
</svg>
