<?xml version="1.0" encoding="utf-8"?>
<!-- Generator: Adobe Illustrator 21.1.0, SVG Export Plug-In . SVG Version: 6.00 Build 0)  -->
<svg version="1.1" baseProfile="basic" id="Layer_1"
	 xmlns="http://www.w3.org/2000/svg" xmlns:xlink="http://www.w3.org/1999/xlink" x="0px" y="0px" viewBox="0 0 64 64"
	 xml:space="preserve">
<style type="text/css">
	.st0{fill:#FFFFFF;}
	.st1{fill:#125D77;}
	.st2{fill:#E8573E;}
	.st3{fill:#105D75;}
</style>
<g>
	<path class="st1" d="M32,0L32,0C14.3,0,0,14.3,0,32s14.3,32,32,32c17.7,0,32-14.3,32-32S49.7,0,32,0"/>
	<path class="st0" d="M32.3,44.6c6.7,0,13.6-1.9,13.6-5.7s-6.8-5.7-13.6-5.7s-13.6,1.9-13.6,5.7S25.6,44.6,32.3,44.6 M20.2,38.9
		c0-1.7,4.6-4.1,12.1-4.1s12.1,2.4,12.1,4.1c0,1.7-4.6,4.1-12.1,4.1S20.2,40.6,20.2,38.9"/>
	<path class="st0" d="M49.2,35.7c-0.2-0.1-0.4-0.1-0.6,0c-0.2,0.1-0.3,0.2-0.4,0.4c-0.1,0.2-0.1,0.4,0,0.6c0.1,0.2,0.2,0.3,0.4,0.4
		c2.7,1.2,4.2,2.5,4.2,3.9c0,1.3-1.5,2.7-4.2,3.8c-4,1.7-10,2.7-16.5,2.7c-6.2,0-12.1-0.9-16.1-2.5c-2.9-1.2-4.6-2.6-4.6-4
		c0-1.4,1.6-2.8,4.6-4c0.4-0.2,0.5-0.6,0.4-0.9c-0.1-0.2-0.2-0.3-0.4-0.4c-0.2-0.1-0.4-0.1-0.6,0c-3.6,1.4-5.5,3.3-5.5,5.3
		c0,2.1,1.9,3.9,5.5,5.3c4.2,1.7,10.2,2.6,16.6,2.6c6.7,0,12.9-1,17.1-2.8c3.3-1.4,5-3.2,5-5.2C54.3,38.9,52.5,37.1,49.2,35.7"/>
	<path class="st0" d="M39.8,37.6c-0.2-1.5-0.4-3-0.7-4.3c0-0.1-0.1-0.3-0.1-0.4c-1.3-6.3-3.2-10.3-5.7-11l0-5.9h0c0,0,0,0,0,0l0-7.7
		h0c0-0.2-0.3-0.3-0.7-0.3S32,8.1,31.9,8.3h0l0,7.7c0,0,0,0,0,0h0l0,5.9c-2.5,0.7-4.9,4.7-6.2,11c0,0.1-0.1,0.3-0.1,0.4
		c-0.3,1.4-0.5,2.8-0.7,4.3c0,0.2,0,0.3-0.1,0.5c0.2,1.4,3.5,2.5,7.5,2.5c4,0,7.2-1.1,7.5-2.5C39.9,38,39.9,37.8,39.8,37.6
		 M29.3,36.4c1,0.2,2,0.3,3.1,0.3c1.1,0,2.1-0.1,3.1-0.3c1-0.2,1.9-0.4,2.6-0.8c0.1,0.8,0.2,1.7,0.3,2.2l0,0.1
		c-0.4,0.3-2.2,1.3-6,1.3c-3.8,0-5.5-1-6-1.3l0-0.1c0-0.3,0.1-0.7,0.1-1.1c0-0.3,0.1-0.7,0.1-1.1C27.4,36,28.3,36.2,29.3,36.4"/>
</g>
</svg>
