<?xml version="1.0" encoding="utf-8"?>
<!-- Generator: Adobe Illustrator 21.1.0, SVG Export Plug-In . SVG Version: 6.00 Build 0)  -->
<svg version="1.1" baseProfile="basic" id="Layer_1"
	 xmlns="http://www.w3.org/2000/svg" xmlns:xlink="http://www.w3.org/1999/xlink" x="0px" y="0px" viewBox="0 0 72.1 72.1"
	 xml:space="preserve">
<style type="text/css">
	.st0{fill:#FFFFFF;}
	.st1{fill:#125D77;}
	.st2{fill:#E8573E;}
	.st3{fill:#105D75;}
</style>
<g>
	<path class="st0" d="M57.4,0H14.7C6.6,0,0,6.6,0,14.7v42.7c0,8.1,6.6,14.7,14.7,14.7h42.7c8.1,0,14.7-6.6,14.7-14.7V14.7
		C72.1,6.6,65.5,0,57.4,0"/>
	<path class="st0" d="M57.4,0H14.7C6.6,0,0,6.6,0,14.7v42.7c0,8.1,6.6,14.7,14.7,14.7h42.7c8.1,0,14.7-6.6,14.7-14.7V14.7
		C72.1,6.6,65.5,0,57.4,0"/>
	<path class="st1" d="M37,44.5c6.8,0,13.7-2,13.7-5.7c0-3.7-6.9-5.7-13.7-5.7s-13.7,2-13.7,5.7C23.4,42.5,30.2,44.5,37,44.5
		 M24.8,38.8c0-1.7,4.6-4.1,12.2-4.1s12.2,2.4,12.2,4.1c0,1.7-4.6,4.1-12.2,4.1S24.8,40.5,24.8,38.8"/>
	<path class="st1" d="M54.1,35.5c-0.2-0.1-0.4-0.1-0.6,0c-0.2,0.1-0.3,0.2-0.4,0.4c-0.1,0.2-0.1,0.4,0,0.6c0.1,0.2,0.2,0.3,0.4,0.4
		c2.7,1.2,4.2,2.5,4.2,3.9c0,1.3-1.5,2.7-4.2,3.9c-4,1.7-10.1,2.7-16.6,2.7c-6.3,0-12.2-0.9-16.2-2.6c-3-1.2-4.6-2.6-4.6-4
		c0-1.4,1.6-2.8,4.6-4c0.4-0.2,0.6-0.6,0.4-0.9c-0.1-0.2-0.2-0.3-0.4-0.4c-0.2-0.1-0.4-0.1-0.6,0c-3.6,1.5-5.5,3.3-5.5,5.4
		c0,2.1,1.9,3.9,5.5,5.4c4.2,1.7,10.3,2.7,16.8,2.7c6.7,0,13-1,17.2-2.8c3.3-1.4,5.1-3.2,5.1-5.2C59.2,38.8,57.4,36.9,54.1,35.5"/>
	<path class="st1" d="M39.2,53.1c1.8,0,3.7-0.1,5.5-0.3c0.4,0,0.7-0.4,0.7-0.8c0-0.4-0.4-0.7-0.8-0.7c-1.7,0.2-3.6,0.2-5.4,0.3
		c-5.2,0.1-10.3-0.3-14.6-1.2c-0.2,0-0.4,0-0.5,0.1c-0.2,0.1-0.3,0.3-0.3,0.5c-0.1,0.4,0.2,0.8,0.6,0.9c4,0.8,8.7,1.3,13.5,1.3
		C38.3,53.1,38.7,53.1,39.2,53.1"/>
	<path class="st1" d="M48.3,55.5c-0.2-0.1-0.3-0.2-0.5-0.2c-5.9,0.7-11.6,0.8-16.6,0.3c-0.4,0-0.8,0.3-0.8,0.6c0,0.2,0,0.4,0.2,0.5
		c0.1,0.2,0.3,0.2,0.5,0.3c2.2,0.2,4.5,0.3,6.9,0.3c3.2,0,6.6-0.2,10.1-0.6c0.4,0,0.7-0.4,0.6-0.8C48.6,55.8,48.5,55.6,48.3,55.5"/>
	<path class="st1" d="M40.5,60.3c-0.2-0.1-0.3-0.2-0.5-0.1c-1,0.1-2.2,0.1-3.4,0c-0.4,0-0.8,0.3-0.8,0.7c0,0.4,0.3,0.8,0.7,0.8
		c0.6,0.1,1.2,0.1,1.8,0.1c0.7,0,1.3,0,1.9-0.1c0.2,0,0.4-0.1,0.5-0.3c0.1-0.2,0.2-0.3,0.1-0.5C40.7,60.5,40.6,60.4,40.5,60.3"/>
	<path class="st2" d="M44.6,37.5c-0.2-1.5-0.4-3-0.7-4.4c0-0.1-0.1-0.3-0.1-0.4c-1.3-6.4-3.2-10.4-5.7-11.1l0-6h0c0,0,0,0,0,0l0-7.8
		h0c0-0.2-0.3-0.3-0.7-0.3c-0.4,0-0.7,0.1-0.7,0.3h0l0,7.8c0,0,0,0,0,0h0l0,5.9c-2.5,0.7-4.9,4.7-6.2,11.1c0,0.1-0.1,0.3-0.1,0.4
		c-0.3,1.4-0.5,2.8-0.7,4.4c0,0.2,0,0.3-0.1,0.5c0.3,1.4,3.5,2.6,7.5,2.6c4,0,7.3-1.1,7.5-2.6C44.7,37.8,44.6,37.7,44.6,37.5
		 M34,36.3c1,0.2,2,0.3,3.1,0.3c1.1,0,2.1-0.1,3.1-0.3c1-0.2,1.9-0.4,2.6-0.8c0.1,0.8,0.2,1.7,0.3,2.2l0,0.1c-0.4,0.4-2.2,1.3-6,1.3
		c-3.8,0-5.6-1-6-1.3l0-0.1c0-0.3,0.1-0.7,0.1-1.1c0-0.3,0.1-0.7,0.1-1.1C32.1,35.8,33,36.1,34,36.3"/>
</g>
</svg>
