<?xml version="1.0" encoding="utf-8"?>
<!-- Generator: Adobe Illustrator 21.1.0, SVG Export Plug-In . SVG Version: 6.00 Build 0)  -->
<svg version="1.1" baseProfile="basic" id="Layer_1"
	 xmlns="http://www.w3.org/2000/svg" xmlns:xlink="http://www.w3.org/1999/xlink" x="0px" y="0px" viewBox="0 0 72.1 72.1"
	 xml:space="preserve">
<style type="text/css">
	.st0{fill:#FFFFFF;}
	.st1{fill:#125D77;}
	.st2{fill:#E8573E;}
	.st3{fill:#105D75;}
</style>
<g>
	<path class="st0" d="M72.1,36c0,19.9-16.1,36-36,36S0,55.9,0,36S16.1,0,36,0S72.1,16.1,72.1,36"/>
	<circle class="st0" cx="36" cy="36" r="36"/>
	<path class="st1" d="M37.2,44.8c6.8,0,13.7-2,13.7-5.7s-6.9-5.7-13.7-5.7c-6.8,0-13.7,2-13.7,5.7S30.4,44.8,37.2,44.8 M25,39.1
		c0-1.7,4.6-4.1,12.2-4.1c7.6,0,12.2,2.4,12.2,4.1c0,1.7-4.6,4.1-12.2,4.1C29.6,43.2,25,40.8,25,39.1"/>
	<path class="st1" d="M54.2,35.8c-0.2-0.1-0.4-0.1-0.6,0c-0.2,0.1-0.3,0.2-0.4,0.4c-0.1,0.2-0.1,0.4,0,0.6c0.1,0.2,0.2,0.3,0.4,0.4
		c2.7,1.2,4.2,2.5,4.2,3.9c0,1.3-1.5,2.7-4.2,3.9c-4,1.7-10.1,2.7-16.6,2.7c-6.3,0-12.2-0.9-16.2-2.6c-3-1.2-4.6-2.6-4.6-4
		c0-1.4,1.6-2.8,4.6-4c0.4-0.2,0.6-0.6,0.4-0.9c-0.1-0.2-0.2-0.3-0.4-0.4c-0.2-0.1-0.4-0.1-0.6,0c-3.6,1.5-5.5,3.3-5.5,5.4
		c0,2.1,1.9,3.9,5.5,5.4c4.2,1.7,10.3,2.7,16.8,2.7c6.7,0,13-1,17.2-2.8c3.3-1.4,5.1-3.2,5.1-5.2C59.3,39.1,57.6,37.3,54.2,35.8"/>
	<path class="st1" d="M39.4,53.4c1.8,0,3.7-0.1,5.5-0.3c0.4,0,0.7-0.4,0.7-0.8c0-0.4-0.4-0.7-0.8-0.7c-1.8,0.2-3.6,0.2-5.4,0.3
		c-5.2,0.1-10.3-0.3-14.6-1.2c-0.2,0-0.4,0-0.5,0.1c-0.2,0.1-0.3,0.3-0.3,0.5c-0.1,0.4,0.2,0.8,0.6,0.9c4,0.8,8.7,1.3,13.5,1.3
		C38.4,53.4,38.9,53.4,39.4,53.4"/>
	<path class="st1" d="M48.5,55.8c-0.2-0.1-0.3-0.2-0.5-0.1c-5.9,0.7-11.6,0.8-16.6,0.3c-0.4,0-0.8,0.3-0.8,0.6c0,0.2,0,0.4,0.2,0.5
		c0.1,0.2,0.3,0.2,0.5,0.3c2.2,0.2,4.5,0.3,6.9,0.3c3.3,0,6.6-0.2,10.1-0.6c0.4,0,0.7-0.4,0.6-0.8C48.7,56.1,48.6,55.9,48.5,55.8"/>
	<path class="st1" d="M40.6,60.6c-0.2-0.1-0.3-0.2-0.5-0.1c-1,0.1-2.2,0.1-3.4,0c-0.4,0-0.8,0.3-0.8,0.7c0,0.4,0.3,0.8,0.7,0.8
		c0.6,0.1,1.2,0.1,1.8,0.1c0.7,0,1.3,0,1.9-0.1c0.2,0,0.4-0.1,0.5-0.3c0.1-0.2,0.2-0.3,0.1-0.5C40.9,60.8,40.8,60.7,40.6,60.6"/>
	<path class="st2" d="M44.8,37.8c-0.2-1.5-0.4-3-0.7-4.4c0-0.1-0.1-0.3-0.1-0.4c-1.3-6.4-3.2-10.4-5.7-11.1l0-6h0c0,0,0,0,0,0l0-7.8
		h0c0-0.2-0.3-0.3-0.7-0.3c-0.4,0-0.7,0.1-0.7,0.3h0l0,7.8c0,0,0,0,0,0h0l0,5.9c-2.5,0.7-4.9,4.7-6.2,11.1c0,0.1-0.1,0.3-0.1,0.4
		c-0.3,1.4-0.5,2.8-0.7,4.4c0,0.2,0,0.3-0.1,0.5c0.3,1.4,3.5,2.6,7.5,2.6c4,0,7.3-1.1,7.5-2.6C44.8,38.1,44.8,38,44.8,37.8
		 M34.2,36.6c1,0.2,2,0.3,3.1,0.3c1.1,0,2.1-0.1,3.1-0.3c1-0.2,1.9-0.4,2.6-0.8c0.1,0.8,0.2,1.7,0.3,2.2l0,0.1
		c-0.4,0.4-2.2,1.3-6,1.3c-3.8,0-5.6-1-6-1.3l0-0.1c0-0.3,0.1-0.7,0.1-1.1c0-0.3,0.1-0.7,0.1-1.1C32.3,36.1,33.1,36.4,34.2,36.6"/>
</g>
</svg>
