<svg xmlns="http://www.w3.org/2000/svg" xmlns:xlink="http://www.w3.org/1999/xlink" viewBox="0 0 28.827 28.827">
  <defs>
    <style>
      .cls-1 {
        fill: #105d75;
      }

      .cls-2 {
        clip-path: url(#clip-path);
      }
    </style>
    <clipPath id="clip-path">
      <rect id="Rectangle_132" data-name="Rectangle 132" class="cls-1" width="16.593" height="9.482"/>
    </clipPath>
  </defs>
  <g id="Group_62" data-name="Group 62" transform="translate(-137 -987)">
    <g id="Group_58" data-name="Group 58" transform="translate(137 987)">
      <path id="Path_60" data-name="Path 60" class="cls-1" d="M28.827,14.413A14.413,14.413,0,1,0,14.413,28.827,14.413,14.413,0,0,0,28.827,14.413Zm-27.516,0a13.1,13.1,0,1,1,13.1,13.1A13.1,13.1,0,0,1,1.31,14.413Z"/>
    </g>
    <g id="Group_61" data-name="Group 61" transform="translate(143.27 997.189)">
      <g id="Group_60" data-name="Group 60">
        <g id="Group_59" data-name="Group 59" class="cls-2">
          <path id="Path_62" data-name="Path 62" class="cls-1" d="M16.4,8.483a.776.776,0,0,1-.053-.105,8.736,8.736,0,0,0-1.633-1.9L14.7,6.468l-.013-.013-.013-.013h-.013c-.369-.356-.593-.579-.7-.7a.659.659,0,0,1-.119-.7,6.393,6.393,0,0,1,.777-1.119c.237-.3.421-.54.553-.724.988-1.317,1.422-2.16,1.291-2.528L16.409.595A.474.474,0,0,0,16.145.45a1.468,1.468,0,0,0-.553-.026L13.13.437a.365.365,0,0,0-.171,0,.868.868,0,0,0-.119.026L12.8.49l-.04.026a.3.3,0,0,0-.092.092.314.314,0,0,0-.079.145,13.826,13.826,0,0,1-.922,1.936c-.211.356-.408.658-.579.922a4.52,4.52,0,0,1-.448.579,2.072,2.072,0,0,1-.329.29.279.279,0,0,1-.224.092c-.053-.013-.105-.026-.145-.04a.61.61,0,0,1-.2-.211,1.075,1.075,0,0,1-.105-.329c-.013-.132-.026-.25-.026-.342V3.242c0-.171.013-.3.013-.356,0-.224,0-.448.013-.711s.013-.461.026-.606.013-.3.013-.474A2.941,2.941,0,0,0,9.653.7,1.138,1.138,0,0,0,9.561.424.549.549,0,0,0,9.39.213.834.834,0,0,0,9.1.095,5.52,5.52,0,0,0,7.941-.011,5.447,5.447,0,0,0,5.873.2a1.208,1.208,0,0,0-.329.263c-.105.132-.119.2-.04.211a1.011,1.011,0,0,1,.724.369l.053.105a1.816,1.816,0,0,1,.119.4,4.133,4.133,0,0,1,.079.632,7.149,7.149,0,0,1,0,1.067c-.026.3-.053.527-.079.7a1.375,1.375,0,0,1-.119.408,1.155,1.155,0,0,1-.105.184q-.02.04-.04.04a.746.746,0,0,1-.237.04.559.559,0,0,1-.29-.119,1.621,1.621,0,0,1-.356-.329,4.764,4.764,0,0,1-.421-.593,7.914,7.914,0,0,1-.474-.9l-.132-.25c-.092-.158-.2-.4-.356-.7s-.277-.606-.4-.882A.559.559,0,0,0,3.266.569L3.226.542A.576.576,0,0,0,3.095.463,1.1,1.1,0,0,0,2.9.411L.553.424A.6.6,0,0,0,.066.582L.026.634A.33.33,0,0,0,0,.766.6.6,0,0,0,.053,1c.342.8.711,1.58,1.119,2.331s.751,1.356,1.054,1.817.606.9.909,1.291a8.91,8.91,0,0,0,.619.777c.105.119.184.2.237.263l.211.211a4.781,4.781,0,0,0,.606.487,9.268,9.268,0,0,0,.882.566,4.958,4.958,0,0,0,1.133.461,4.159,4.159,0,0,0,1.251.145H9.06a.7.7,0,0,0,.461-.184l.04-.04a.956.956,0,0,0,.066-.158.654.654,0,0,0,.026-.237,3.475,3.475,0,0,1,.053-.672,1.781,1.781,0,0,1,.145-.448.949.949,0,0,1,.184-.25.7.7,0,0,1,.145-.119.223.223,0,0,1,.066-.026.579.579,0,0,1,.487.132,3.1,3.1,0,0,1,.527.5q.237.3.593.672a3.6,3.6,0,0,0,.606.553l.171.105a2.09,2.09,0,0,0,.448.184,1.02,1.02,0,0,0,.474.04l2.2-.04a1.048,1.048,0,0,0,.5-.105.362.362,0,0,0,.211-.237.54.54,0,0,0,0-.29.893.893,0,0,0-.066-.25Zm0,0" transform="translate(0 0.011)"/>
        </g>
      </g>
    </g>
  </g>
</svg>
