<svg id="Group_69" data-name="Group 69" xmlns="http://www.w3.org/2000/svg" viewBox="0 0 77 87.583">
  <defs>
    <style>
      .cls-1 {
        fill: #105d75;
      }
    </style>
  </defs>
  <path id="Path_79" data-name="Path 79" class="cls-1" d="M58.994,122.9c-11.387,0-23.494-3.005-23.494-8.551S47.607,105.8,58.994,105.8s23.494,3.005,23.494,8.551S70.423,122.9,58.994,122.9Zm0-15.408c-12.869,0-21.8,3.6-21.8,6.858s8.974,6.858,21.8,6.858c12.869,0,21.8-3.6,21.8-6.858S71.862,107.493,58.994,107.493Z" transform="translate(-20.473 -61.014)"/>
  <path id="Path_80" data-name="Path 80" class="cls-1" d="M38.521,127.31c-11.26,0-21.885-1.693-29.166-4.614C3.259,120.2,0,117.066,0,113.637s3.259-6.561,9.355-9.016a.845.845,0,0,1,.635,1.566c-5.334,2.159-8.3,4.783-8.3,7.45s2.963,5.291,8.3,7.45c7.069,2.879,17.483,4.487,28.531,4.487,11.514,0,22.181-1.736,29.251-4.826,4.91-2.117,7.577-4.656,7.577-7.154,0-2.54-2.709-5.08-7.7-7.2a.845.845,0,1,1,.635-1.566c5.715,2.413,8.72,5.461,8.72,8.763,0,3.259-2.963,6.307-8.593,8.72C61.168,125.49,50.247,127.31,38.521,127.31Z" transform="translate(0 -60.3)"/>
  <path id="Path_81" data-name="Path 81" class="cls-1" d="M61.673,167.254a116.463,116.463,0,0,1-23.578-2.244.847.847,0,0,1,.381-1.651,116.137,116.137,0,0,0,25.653,2.2c3.175-.042,6.35-.212,9.4-.508a.851.851,0,0,1,.169,1.693q-4.7.381-9.524.508C63.324,167.212,62.477,167.254,61.673,167.254Z" transform="translate(-21.586 -94.191)"/>
  <path id="Path_82" data-name="Path 82" class="cls-1" d="M77.679,185.347a120.322,120.322,0,0,1-12.022-.593.851.851,0,0,1,.169-1.693,133.493,133.493,0,0,0,29.208-.466.832.832,0,0,1,.212,1.651A140.286,140.286,0,0,1,77.679,185.347Z" transform="translate(-37.422 -105.299)"/>
  <path id="Path_83" data-name="Path 83" class="cls-1" d="M91.047,204.3a25.665,25.665,0,0,1-3.09-.169.851.851,0,1,1,.169-1.693,25.749,25.749,0,0,0,6.011-.042.832.832,0,0,1,.212,1.651A20.489,20.489,0,0,1,91.047,204.3Z" transform="translate(-50.283 -116.717)"/>
  <path id="Path_84" data-name="Path 84" class="cls-1" d="M87.1,52.533c-.339-2.667-.72-5.207-1.185-7.62a4.922,4.922,0,0,0-.169-.762C83.5,33.018,79.695,25.78,75.335,24.594V14.181h0V.55h0c-.042-.3-.593-.55-1.27-.55-.72,0-1.27.254-1.27.55h0V14.139h0v.042h0V24.594c-4.4,1.185-8.17,8.382-10.456,19.515a4.922,4.922,0,0,1-.169.762c-.466,2.413-.889,4.953-1.185,7.62a6.315,6.315,0,0,0-.085.889c.423,2.5,6.18,4.487,13.207,4.487s12.742-1.99,13.207-4.487A2.763,2.763,0,0,1,87.1,52.533Zm-13.08,3.64c-7.2,0-10.964-1.99-11.472-2.921a2.914,2.914,0,0,1,.085-.55c.169-1.4.381-2.752.593-4.106A17.061,17.061,0,0,0,68.6,50.331a32,32,0,0,0,5.461.466,32.381,32.381,0,0,0,5.461-.466A16.353,16.353,0,0,0,84.9,48.6c.212,1.312.423,2.709.593,4.106.042.169.042.339.085.55C84.986,54.184,81.219,56.173,74.023,56.173Z" transform="translate(-35.12)"/>
</svg>
