<svg id="Group_54" data-name="Group 54" xmlns="http://www.w3.org/2000/svg" viewBox="0 0 152.141 60.337">
  <defs>
    <style>
      .cls-1 {
        fill: #105d75;
      }
    </style>
  </defs>
  <path id="Path_20" data-name="Path 20" class="cls-1" d="M51.685,117.582c-7.845,0-16.185-2.071-16.185-5.891s8.34-5.891,16.185-5.891,16.185,2.071,16.185,5.891S59.559,117.582,51.685,117.582Zm0-10.615c-8.865,0-15.019,2.479-15.019,4.724s6.182,4.724,15.019,4.724c8.865,0,15.019-2.479,15.019-4.724S60.551,106.966,51.685,106.966Z" transform="translate(-25.147 -74.946)"/>
  <path id="Path_21" data-name="Path 21" class="cls-1" d="M26.538,120.233c-7.757,0-15.077-1.167-20.093-3.179C2.246,115.334,0,113.176,0,110.814s2.246-4.52,6.445-6.212a.582.582,0,0,1,.437,1.079c-3.674,1.487-5.716,3.3-5.716,5.133s2.041,3.645,5.716,5.133c4.87,1.983,12.044,3.091,19.656,3.091,7.932,0,15.281-1.2,20.151-3.325,3.383-1.458,5.22-3.208,5.22-4.928,0-1.75-1.866-3.5-5.308-4.958a.582.582,0,1,1,.437-1.079c3.937,1.662,6.007,3.762,6.007,6.037,0,2.246-2.041,4.345-5.92,6.007C42.14,118.979,34.616,120.233,26.538,120.233Z" transform="translate(0 -74.069)"/>
  <path id="Path_22" data-name="Path 22" class="cls-1" d="M54.132,166.034a80.232,80.232,0,0,1-16.243-1.546.584.584,0,1,1,.262-1.137,80.009,80.009,0,0,0,17.672,1.516c2.187-.029,4.374-.146,6.474-.35a.586.586,0,0,1,.117,1.167q-3.237.262-6.562.35C55.269,166,54.686,166.034,54.132,166.034Z" transform="translate(-26.515 -115.699)"/>
  <path id="Path_23" data-name="Path 23" class="cls-1" d="M73.7,184.49a82.9,82.9,0,0,1-8.282-.408.586.586,0,0,1,.117-1.167,91.964,91.964,0,0,0,20.122-.321.573.573,0,0,1,.146,1.137A96.645,96.645,0,0,1,73.7,184.49Z" transform="translate(-45.968 -129.343)"/>
  <path id="Path_24" data-name="Path 24" class="cls-1" d="M89.848,203.706a17.683,17.683,0,0,1-2.129-.117.586.586,0,0,1,.117-1.167,17.74,17.74,0,0,0,4.141-.029.573.573,0,0,1,.146,1.137A14.117,14.117,0,0,1,89.848,203.706Z" transform="translate(-61.764 -143.368)"/>
  <path id="Path_25" data-name="Path 25" class="cls-1" d="M78.952,36.191c-.233-1.837-.5-3.587-.817-5.249a3.389,3.389,0,0,0-.117-.525c-1.546-7.67-4.17-12.657-7.174-13.473V9.769h0V.379h0C70.815.175,70.436,0,69.97,0c-.5,0-.875.175-.875.379h0V9.74h0v.029h0v7.174c-3.033.817-5.628,5.774-7.2,13.444a3.391,3.391,0,0,1-.117.525c-.321,1.662-.612,3.412-.817,5.249a4.351,4.351,0,0,0-.058.612c.292,1.721,4.258,3.091,9.1,3.091s8.778-1.371,9.1-3.091A1.9,1.9,0,0,1,78.952,36.191ZM69.94,38.7c-4.958,0-7.553-1.371-7.9-2.012a2.007,2.007,0,0,1,.058-.379c.117-.962.262-1.9.408-2.829a11.753,11.753,0,0,0,3.7,1.2,22.047,22.047,0,0,0,3.762.321,22.308,22.308,0,0,0,3.762-.321,11.266,11.266,0,0,0,3.7-1.2c.146.9.292,1.866.408,2.829.029.117.029.233.058.379C77.493,37.328,74.9,38.7,69.94,38.7Z" transform="translate(-43.14)"/>
  <g id="Group_48" data-name="Group 48" transform="translate(65.003 17.702)">
    <g id="Group_47" data-name="Group 47">
      <path id="Path_26" data-name="Path 26" class="cls-1" d="M227.449,61a8.4,8.4,0,0,1,2.566.35,5.334,5.334,0,0,1,1.808.962,4.362,4.362,0,0,1,1.079,1.516,5.339,5.339,0,0,1,.35,1.983,4.908,4.908,0,0,1-.379,1.983,4.19,4.19,0,0,1-1.108,1.546,5.421,5.421,0,0,1-1.808,1.021,8.077,8.077,0,0,1-2.479.35H225v5.8h-2.1V61Zm0,8.049a4.98,4.98,0,0,0,1.575-.233,3.066,3.066,0,0,0,1.167-.671,2.468,2.468,0,0,0,.7-1.021,3.879,3.879,0,0,0,.233-1.312,2.926,2.926,0,0,0-.9-2.3,4.035,4.035,0,0,0-2.77-.846h-2.479v6.387h2.479Z" transform="translate(-222.9 -60.913)"/>
      <path id="Path_27" data-name="Path 27" class="cls-1" d="M265.97,80.887a5.821,5.821,0,0,1,1.9.262,3.1,3.1,0,0,1,1.254.729,2.5,2.5,0,0,1,.671,1.05,3.741,3.741,0,0,1-.058,2.6,3.449,3.449,0,0,1-.758,1.079,4,4,0,0,1-1.254.7,5.2,5.2,0,0,1-1.721.262h-4.2V76.6h1.837v4.287Zm.058,5.249a3.588,3.588,0,0,0,1.021-.146,1.65,1.65,0,0,0,.7-.408,1.737,1.737,0,0,0,.408-.612,2.227,2.227,0,0,0,.146-.787,2.013,2.013,0,0,0-.117-.729,1.419,1.419,0,0,0-.408-.612,1.766,1.766,0,0,0-.729-.408,3.709,3.709,0,0,0-1.079-.146h-2.333v3.849Zm8.34-9.536V87.565h-1.925V76.6Z" transform="translate(-250.456 -71.963)"/>
      <path id="Path_28" data-name="Path 28" class="cls-1" d="M316.437,62.741a5.167,5.167,0,0,0-1.9.5,3.873,3.873,0,0,0-1.312,1.05,4.346,4.346,0,0,0-.787,1.6,8.9,8.9,0,0,0-.292,2.1,3.628,3.628,0,0,1,.671-.933,3.138,3.138,0,0,1,.933-.7,4.644,4.644,0,0,1,1.167-.467,4.769,4.769,0,0,1,1.312-.146,4.674,4.674,0,0,1,1.954.379,4.25,4.25,0,0,1,1.487,1.079,4.533,4.533,0,0,1,.933,1.691,7.475,7.475,0,0,1,.321,2.187,6,6,0,0,1-.379,2.216,4.81,4.81,0,0,1-1.079,1.691,4.962,4.962,0,0,1-1.662,1.079,5.687,5.687,0,0,1-2.158.379,5.442,5.442,0,0,1-2.071-.379,3.757,3.757,0,0,1-1.662-1.225,6.073,6.073,0,0,1-1.108-2.216,12.554,12.554,0,0,1-.408-3.412,15.229,15.229,0,0,1,.321-3.179,7.2,7.2,0,0,1,1.021-2.508,5.665,5.665,0,0,1,1.808-1.721,6.188,6.188,0,0,1,2.712-.787l3.908-.321.117.992a.832.832,0,0,1-.087.554.58.58,0,0,1-.467.262Zm-.729,12.277A3,3,0,0,0,318.157,74a4.533,4.533,0,0,0,.817-2.887,4.715,4.715,0,0,0-.787-2.887,2.785,2.785,0,0,0-2.391-1.05,3.967,3.967,0,0,0-1.371.233,3.31,3.31,0,0,0-1.05.7,3.666,3.666,0,0,0-.671,1.137,5.061,5.061,0,0,0-.233,1.546,6.409,6.409,0,0,0,.2,1.75,3.912,3.912,0,0,0,.612,1.312,2.667,2.667,0,0,0,.992.817A2.805,2.805,0,0,0,315.708,75.019Z" transform="translate(-284.883 -60.7)"/>
      <path id="Path_29" data-name="Path 29" class="cls-1" d="M349.425,77.65a6.4,6.4,0,0,1,1.954-1.312,6.045,6.045,0,0,1,2.333-.437,4.082,4.082,0,0,1,1.633.292,3.555,3.555,0,0,1,1.2.846,3.2,3.2,0,0,1,.729,1.312,5.273,5.273,0,0,1,.262,1.691v7h-.846a.974.974,0,0,1-.437-.087.666.666,0,0,1-.233-.35l-.2-1.05c-.292.262-.583.5-.846.7a4.35,4.35,0,0,1-.875.525,3.4,3.4,0,0,1-.962.321,4.7,4.7,0,0,1-1.137.117,3.95,3.95,0,0,1-1.2-.175,2.939,2.939,0,0,1-.992-.525,2.371,2.371,0,0,1-.671-.9,2.886,2.886,0,0,1-.233-1.283,2.472,2.472,0,0,1,.35-1.254,3.017,3.017,0,0,1,1.167-1.079,7.242,7.242,0,0,1,2.1-.758,15.444,15.444,0,0,1,3.15-.35v-.846a2.861,2.861,0,0,0-.554-1.925,1.986,1.986,0,0,0-1.6-.642,3.569,3.569,0,0,0-1.2.175,4.573,4.573,0,0,0-.846.408c-.233.146-.437.292-.612.408a.93.93,0,0,1-.5.175.439.439,0,0,1-.321-.117.688.688,0,0,1-.233-.262Zm6.212,4.462a16.033,16.033,0,0,0-2.275.2,6.835,6.835,0,0,0-1.516.437,1.97,1.97,0,0,0-.846.642,1.364,1.364,0,0,0-.262.817,2.064,2.064,0,0,0,.146.758,1.731,1.731,0,0,0,.379.525,1.378,1.378,0,0,0,.583.292,2.876,2.876,0,0,0,.7.087,3.872,3.872,0,0,0,1.721-.408,2.93,2.93,0,0,0,.7-.467,6.386,6.386,0,0,0,.671-.612Z" transform="translate(-312.155 -71.467)"/>
      <path id="Path_30" data-name="Path 30" class="cls-1" d="M396.211,86.078v4.637a.716.716,0,0,1-.146.437.508.508,0,0,1-.408.146H394.49V87.536H385.1V76.6h1.925v9.507h5.249V76.6H394.2v9.507h2.012Z" transform="translate(-337.798 -71.963)"/>
      <path id="Path_31" data-name="Path 31" class="cls-1" d="M433.12,77.125a1.03,1.03,0,0,1,.408-.379,1.188,1.188,0,0,1,.525-.146h1.516l-2.858,4.17a2.446,2.446,0,0,1-.554.642,2.017,2.017,0,0,1-.7.408,2.064,2.064,0,0,1,.875.437,4.183,4.183,0,0,1,.642.758l2.887,4.52H434.52a1.432,1.432,0,0,1-.787-.175,2,2,0,0,1-.5-.5l-2.129-3.412a1.69,1.69,0,0,0-1.516-.846h-1.167v4.928H426.5V76.6h1.925v4.724h1.05a1.49,1.49,0,0,0,1.341-.729Z" transform="translate(-367.125 -71.963)"/>
      <path id="Path_32" data-name="Path 32" class="cls-1" d="M459.325,77.65a6.4,6.4,0,0,1,1.954-1.312,6.045,6.045,0,0,1,2.333-.437,4.082,4.082,0,0,1,1.633.292,3.554,3.554,0,0,1,1.2.846,3.2,3.2,0,0,1,.729,1.312,5.273,5.273,0,0,1,.262,1.691v7h-.846a.974.974,0,0,1-.437-.087.666.666,0,0,1-.233-.35l-.2-1.05c-.292.262-.583.5-.846.7a4.35,4.35,0,0,1-.875.525,3.4,3.4,0,0,1-.962.321,4.7,4.7,0,0,1-1.137.117,3.95,3.95,0,0,1-1.2-.175,2.939,2.939,0,0,1-.992-.525,2.371,2.371,0,0,1-.671-.9,2.885,2.885,0,0,1-.233-1.283,2.472,2.472,0,0,1,.35-1.254,3.017,3.017,0,0,1,1.167-1.079,7.242,7.242,0,0,1,2.1-.758,15.443,15.443,0,0,1,3.15-.35v-.846a2.861,2.861,0,0,0-.554-1.925,1.986,1.986,0,0,0-1.6-.642,3.569,3.569,0,0,0-1.2.175,4.571,4.571,0,0,0-.846.408c-.233.146-.437.292-.612.408a.929.929,0,0,1-.5.175.439.439,0,0,1-.321-.117.689.689,0,0,1-.233-.262Zm6.212,4.462a16.032,16.032,0,0,0-2.275.2,6.835,6.835,0,0,0-1.516.437,1.97,1.97,0,0,0-.846.642,1.364,1.364,0,0,0-.262.817,2.066,2.066,0,0,0,.146.758,1.731,1.731,0,0,0,.379.525,1.378,1.378,0,0,0,.583.292,2.876,2.876,0,0,0,.7.087,3.873,3.873,0,0,0,1.721-.408,2.93,2.93,0,0,0,.7-.467,6.383,6.383,0,0,0,.671-.612Z" transform="translate(-390.006 -71.467)"/>
      <path id="Path_33" data-name="Path 33" class="cls-1" d="M499.882,76.6V87.565h-1.837V82.928H497.2a2.094,2.094,0,0,0-.5.058.973.973,0,0,0-.35.146,1.886,1.886,0,0,0-.262.233c-.058.087-.146.2-.233.321l-2.391,3.237a1.059,1.059,0,0,1-.437.5,1.432,1.432,0,0,1-.787.175H490.9l3.179-4.141a1.96,1.96,0,0,1,1.021-.875,4.435,4.435,0,0,1-1.4-.379,2.844,2.844,0,0,1-.933-.671,2.568,2.568,0,0,1-.525-.846,2.641,2.641,0,0,1-.175-.933,3.171,3.171,0,0,1,.233-1.137,2.574,2.574,0,0,1,.7-.992,3.7,3.7,0,0,1,1.254-.7,5.88,5.88,0,0,1,1.866-.262h3.762Zm-1.837,5.1v-3.82h-1.837a2.825,2.825,0,0,0-1.05.175,1.63,1.63,0,0,0-.671.467,1.3,1.3,0,0,0-.35.612,2.948,2.948,0,0,0-.117.671,1.69,1.69,0,0,0,.642,1.4,2.746,2.746,0,0,0,1.779.5Z" transform="translate(-412.745 -71.963)"/>
    </g>
  </g>
  <g id="Group_50" data-name="Group 50" transform="translate(65.149 3.937)">
    <g id="Group_49" data-name="Group 49">
      <path id="Path_34" data-name="Path 34" class="cls-1" d="M232.44,25.549h-.321a.313.313,0,0,1-.175-.058c-.058-.029-.087-.087-.146-.117l-2.071-2.654a1.185,1.185,0,0,0-.292-.262A.974.974,0,0,0,229,22.37h-.846v3.179h-.467V22.37h-.846a.974.974,0,0,0-.437.087.827.827,0,0,0-.292.262l-2.071,2.654a.291.291,0,0,1-.146.117.414.414,0,0,1-.175.058H223.4l2.246-2.945a1.529,1.529,0,0,1,.292-.321,1.508,1.508,0,0,1,.379-.175,1.078,1.078,0,0,1-.321-.146,1.313,1.313,0,0,1-.262-.292l-2.216-2.77h.379a.219.219,0,0,1,.146.029.228.228,0,0,1,.117.117l2.041,2.537.175.175a.61.61,0,0,0,.175.117c.058.029.117.029.175.058h.962v-3h.467v3.062h.962a.742.742,0,0,0,.2-.058.61.61,0,0,0,.175-.117l.175-.175,2.041-2.537a.228.228,0,0,1,.117-.117.263.263,0,0,1,.146-.029h.379l-2.216,2.77a2.629,2.629,0,0,1-.262.292,1.078,1.078,0,0,1-.321.146.9.9,0,0,1,.379.175,1.382,1.382,0,0,1,.292.292Z" transform="translate(-223.4 -17.325)"/>
      <path id="Path_35" data-name="Path 35" class="cls-1" d="M262.1,18.858v6.62h-.5V19.733a1.2,1.2,0,0,1,.029-.321c-.029.087-.087.175-.117.262a.873.873,0,0,0-.117.233l-3.82,5.424c-.029.029-.058.087-.087.117a.221.221,0,0,1-.117.058H257V18.858h.5v5.716a1.2,1.2,0,0,1-.029.321c.029-.087.087-.175.117-.262s.087-.146.117-.233l3.82-5.424c.029-.029.058-.087.087-.117a.221.221,0,0,1,.117-.058h.379Z" transform="translate(-247.201 -17.254)"/>
      <path id="Path_36" data-name="Path 36" class="cls-1" d="M282.458,25.62h-.5V19.379h-2.654c-.029.875-.087,1.633-.175,2.3-.058.642-.146,1.225-.233,1.691a6.109,6.109,0,0,1-.321,1.137,2.605,2.605,0,0,1-.408.7,1.04,1.04,0,0,1-.467.35,1.651,1.651,0,0,1-.525.087.807.807,0,0,1-.262-.029c-.088-.029-.117-.058-.117-.087v-.292h.292a.931.931,0,0,0,.408-.087.855.855,0,0,0,.379-.35,2.622,2.622,0,0,0,.321-.7,6.349,6.349,0,0,0,.292-1.137c.087-.467.146-1.021.2-1.662s.117-1.429.146-2.3h3.587v6.62Z" transform="translate(-261.227 -17.396)"/>
      <path id="Path_37" data-name="Path 37" class="cls-1" d="M305.8,22.183a4.268,4.268,0,0,1-.233,1.4,3.649,3.649,0,0,1-.642,1.079,2.845,2.845,0,0,1-.992.671,3.051,3.051,0,0,1-1.283.233,3.589,3.589,0,0,1-1.283-.233,2.978,2.978,0,0,1-.992-.671,2.663,2.663,0,0,1-.642-1.079,4.139,4.139,0,0,1-.233-1.4,4.4,4.4,0,0,1,.233-1.4,3.65,3.65,0,0,1,.642-1.079,2.845,2.845,0,0,1,.992-.671,3.051,3.051,0,0,1,1.283-.233,3.589,3.589,0,0,1,1.283.233,2.978,2.978,0,0,1,.992.671,2.664,2.664,0,0,1,.642,1.079A3.53,3.53,0,0,1,305.8,22.183Zm-.5,0a3.43,3.43,0,0,0-.2-1.254,2.933,2.933,0,0,0-.554-.933,2.442,2.442,0,0,0-.846-.583,2.954,2.954,0,0,0-2.158,0A2.442,2.442,0,0,0,300.7,20a2.934,2.934,0,0,0-.554.933,4.182,4.182,0,0,0-.2,1.254,3.43,3.43,0,0,0,.2,1.254,2.484,2.484,0,0,0,.554.933,2.442,2.442,0,0,0,.846.583,2.636,2.636,0,0,0,1.079.2,2.546,2.546,0,0,0,1.079-.2,2.442,2.442,0,0,0,.846-.583,2.933,2.933,0,0,0,.554-.933A3.43,3.43,0,0,0,305.3,22.183Z" transform="translate(-277.307 -17.254)"/>
      <path id="Path_38" data-name="Path 38" class="cls-1" d="M329.674,15.1v6.62h-.5V15.979a1.2,1.2,0,0,1,.029-.321,1.035,1.035,0,0,0-.117.262.873.873,0,0,0-.117.233l-3.82,5.424c-.029.029-.058.087-.087.117a.221.221,0,0,1-.117.058h-.35V15.1h.5V20.82a1.2,1.2,0,0,1-.029.321c.029-.087.087-.175.117-.262s.087-.146.117-.233l3.791-5.4c.029-.029.058-.087.087-.117a.221.221,0,0,1,.117-.058h.379Zm-2.6-.729a.741.741,0,0,0,.612-.2,1.083,1.083,0,0,0,.175-.671h.262c.029,0,.058.029.087.058s.029.058.029.117a.865.865,0,0,1-.292.7,1.589,1.589,0,0,1-1.75,0,.865.865,0,0,1-.292-.7.175.175,0,0,1,.029-.117c.029-.029.058-.058.087-.058h.233a.975.975,0,0,0,.175.671A.942.942,0,0,0,327.079,14.375Z" transform="translate(-295.088 -13.5)"/>
      <path id="Path_39" data-name="Path 39" class="cls-1" d="M363.67,25.62h-.408a.219.219,0,0,1-.146-.029.637.637,0,0,1-.117-.146l-2.187-2.683a.845.845,0,0,0-.262-.262.414.414,0,0,0-.175-.058c-.058,0-.146-.029-.233-.029H359.3v3.179h-.5V19h.5v3.062h.962a.414.414,0,0,0,.175-.058l.175-.087a.5.5,0,0,0,.175-.175l2.071-2.566a.228.228,0,0,1,.117-.117.218.218,0,0,1,.146-.029h.379l-2.246,2.8a1.114,1.114,0,0,1-.262.262,1.078,1.078,0,0,1-.321.146.973.973,0,0,1,.35.146l.292.292Z" transform="translate(-319.314 -17.396)"/>
      <path id="Path_40" data-name="Path 40" class="cls-1" d="M381.2,22.183a4.268,4.268,0,0,1-.233,1.4,3.649,3.649,0,0,1-.642,1.079,2.845,2.845,0,0,1-.992.671,3.051,3.051,0,0,1-1.283.233,3.589,3.589,0,0,1-1.283-.233,2.978,2.978,0,0,1-.992-.671,2.663,2.663,0,0,1-.642-1.079,4.139,4.139,0,0,1-.233-1.4,4.4,4.4,0,0,1,.233-1.4,3.649,3.649,0,0,1,.642-1.079,2.845,2.845,0,0,1,.992-.671,3.051,3.051,0,0,1,1.283-.233,3.589,3.589,0,0,1,1.283.233,2.979,2.979,0,0,1,.992.671,2.664,2.664,0,0,1,.642,1.079A4.139,4.139,0,0,1,381.2,22.183Zm-.5,0a3.431,3.431,0,0,0-.2-1.254,2.484,2.484,0,0,0-.554-.933,2.442,2.442,0,0,0-.846-.583,2.954,2.954,0,0,0-2.158,0A2.442,2.442,0,0,0,376.1,20a2.935,2.935,0,0,0-.554.933,4.183,4.183,0,0,0-.2,1.254,3.431,3.431,0,0,0,.2,1.254,2.484,2.484,0,0,0,.554.933,2.442,2.442,0,0,0,.846.583,2.636,2.636,0,0,0,1.079.2,2.545,2.545,0,0,0,1.079-.2,2.442,2.442,0,0,0,.846-.583,2.935,2.935,0,0,0,.554-.933A3.43,3.43,0,0,0,380.7,22.183Z" transform="translate(-330.719 -17.254)"/>
      <path id="Path_41" data-name="Path 41" class="cls-1" d="M406.362,19v6.62h-.408V19.729l-2.6,4.637a.181.181,0,0,1-.175.117h-.117a.16.16,0,0,1-.175-.117l-2.683-4.637V25.62H399.8V19h.437q.044,0,.087.087l2.683,4.608a.873.873,0,0,1,.117.292c.029-.058.029-.087.058-.146s.058-.087.058-.146l2.6-4.608.087-.087h.437Z" transform="translate(-348.357 -17.396)"/>
      <path id="Path_42" data-name="Path 42" class="cls-1" d="M431.783,25.62h-.5V19.379h-3.849V25.62H427V19h4.812v6.62Z" transform="translate(-367.625 -17.396)"/>
      <path id="Path_43" data-name="Path 43" class="cls-1" d="M451.358,25.62h-.5V19.379h-2.654c-.029.875-.087,1.633-.175,2.3-.058.642-.146,1.225-.233,1.691a6.107,6.107,0,0,1-.321,1.137,2.6,2.6,0,0,1-.408.7,1.04,1.04,0,0,1-.467.35,1.651,1.651,0,0,1-.525.087.807.807,0,0,1-.262-.029c-.087-.029-.117-.058-.117-.087v-.292h.292a.931.931,0,0,0,.408-.087.855.855,0,0,0,.379-.35,2.624,2.624,0,0,0,.321-.7,6.353,6.353,0,0,0,.292-1.137c.087-.467.146-1.021.2-1.662s.117-1.429.146-2.3h3.587v6.62Z" transform="translate(-380.872 -17.396)"/>
      <path id="Path_44" data-name="Path 44" class="cls-1" d="M473.766,25.241v.408H469.8V19h3.966v.408H470.3v2.683h2.887v.379H470.3v2.77Z" transform="translate(-397.944 -17.396)"/>
      <path id="Path_45" data-name="Path 45" class="cls-1" d="M491.47,25.62h-.408a.218.218,0,0,1-.146-.029.635.635,0,0,1-.117-.146l-2.187-2.683c-.058-.058-.087-.117-.117-.146a.637.637,0,0,0-.146-.117.414.414,0,0,0-.175-.058c-.058,0-.146-.029-.233-.029H487.1v3.179h-.5V19h.5v3.062h.962a.414.414,0,0,0,.175-.058l.175-.087a.5.5,0,0,0,.175-.175l2.071-2.566a.228.228,0,0,1,.117-.117.219.219,0,0,1,.146-.029h.379l-2.246,2.8a1.114,1.114,0,0,1-.262.262,1.078,1.078,0,0,1-.321.146.973.973,0,0,1,.35.146l.292.292Z" transform="translate(-409.844 -17.396)"/>
      <path id="Path_46" data-name="Path 46" class="cls-1" d="M507.82,24.37a.107.107,0,0,1,.087.029l.175.2a5.6,5.6,0,0,1-.437.408,4.719,4.719,0,0,1-.525.292,4.129,4.129,0,0,1-.642.2,3.081,3.081,0,0,1-.758.058,3.429,3.429,0,0,1-1.254-.233,3.307,3.307,0,0,1-.992-.671,3.034,3.034,0,0,1-.642-1.079,4.139,4.139,0,0,1-.233-1.4,4.093,4.093,0,0,1,.233-1.371,3.65,3.65,0,0,1,.642-1.079,3.178,3.178,0,0,1,1.021-.7A3.708,3.708,0,0,1,507,19a4.039,4.039,0,0,1,.962.583l-.146.2a.151.151,0,0,1-.117.058c-.029,0-.087-.029-.175-.117-.087-.058-.2-.146-.35-.233a5.3,5.3,0,0,0-.554-.233,3.232,3.232,0,0,0-.817-.117,2.777,2.777,0,0,0-1.108.2,2.442,2.442,0,0,0-.846.583,2.484,2.484,0,0,0-.554.933,3.377,3.377,0,0,0-.2,1.225,3.431,3.431,0,0,0,.2,1.254,2.934,2.934,0,0,0,.554.933,2.442,2.442,0,0,0,.846.583,2.5,2.5,0,0,0,1.05.2,4.369,4.369,0,0,0,.642-.058,3.526,3.526,0,0,0,.525-.146,3.186,3.186,0,0,0,.437-.233,3.921,3.921,0,0,0,.408-.321c.029,0,.029-.029.058-.029C507.791,24.37,507.82,24.37,507.82,24.37Z" transform="translate(-421.178 -17.254)"/>
    </g>
  </g>
  <g id="Group_52" data-name="Group 52" transform="translate(65.236 41.032)">
    <g id="Group_51" data-name="Group 51">
      <path id="Path_47" data-name="Path 47" class="cls-1" d="M230.786,142.858h-5.162v9.507H223.7V141.4h7.086Z" transform="translate(-223.7 -141.196)"/>
      <path id="Path_48" data-name="Path 48" class="cls-1" d="M249.325,142.45a6.4,6.4,0,0,1,1.954-1.312,6.045,6.045,0,0,1,2.333-.437,4.081,4.081,0,0,1,1.633.292,3.554,3.554,0,0,1,1.2.846,3.2,3.2,0,0,1,.729,1.312,5.273,5.273,0,0,1,.262,1.691v7h-.846a.974.974,0,0,1-.437-.087.667.667,0,0,1-.233-.35l-.2-1.05c-.292.262-.583.5-.846.7a4.351,4.351,0,0,1-.875.525,3.4,3.4,0,0,1-.962.321,4.7,4.7,0,0,1-1.137.117,3.951,3.951,0,0,1-1.2-.175,2.94,2.94,0,0,1-.992-.525,2.371,2.371,0,0,1-.671-.9,2.886,2.886,0,0,1-.233-1.283,2.472,2.472,0,0,1,.35-1.254,3.017,3.017,0,0,1,1.167-1.079,7.243,7.243,0,0,1,2.1-.758,15.444,15.444,0,0,1,3.15-.35v-.846a2.861,2.861,0,0,0-.554-1.925,1.986,1.986,0,0,0-1.6-.642,3.569,3.569,0,0,0-1.2.175,4.571,4.571,0,0,0-.846.408c-.233.146-.437.292-.612.408a.93.93,0,0,1-.5.175.439.439,0,0,1-.321-.117.689.689,0,0,1-.233-.262Zm6.212,4.462a16.034,16.034,0,0,0-2.275.2,6.835,6.835,0,0,0-1.516.437,1.97,1.97,0,0,0-.846.642,1.364,1.364,0,0,0-.262.817,2.065,2.065,0,0,0,.146.758,1.731,1.731,0,0,0,.379.525,1.378,1.378,0,0,0,.583.292,2.876,2.876,0,0,0,.7.087,3.873,3.873,0,0,0,1.721-.408,2.931,2.931,0,0,0,.7-.467c.2-.175.437-.379.671-.612Z" transform="translate(-241.48 -140.7)"/>
      <path id="Path_49" data-name="Path 49" class="cls-1" d="M288.783,141.4a6.268,6.268,0,0,1,1.75.2,3.8,3.8,0,0,1,1.2.554,2.188,2.188,0,0,1,.671.817,2.367,2.367,0,0,1,.2,1.021,3.563,3.563,0,0,1-.087.758,2.211,2.211,0,0,1-.35.758,2.359,2.359,0,0,1-.671.642,2.654,2.654,0,0,1-1.05.437,3.485,3.485,0,0,1,1.925.875,2.242,2.242,0,0,1,.671,1.721,3.093,3.093,0,0,1-.321,1.4,2.835,2.835,0,0,1-.875.992,3.838,3.838,0,0,1-1.312.583,6.891,6.891,0,0,1-1.6.2H284.7V141.4Zm-2.158,1.283v3.441h2.1a2.749,2.749,0,0,0,.875-.146,2.036,2.036,0,0,0,.7-.379,1.794,1.794,0,0,0,.467-.583,1.615,1.615,0,0,0,.175-.758,1.305,1.305,0,0,0-.117-.583,1.037,1.037,0,0,0-.379-.5,2.081,2.081,0,0,0-.671-.35,3.646,3.646,0,0,0-1.05-.146Zm2.362,8.311a2.8,2.8,0,0,0,1.721-.5,1.716,1.716,0,0,0,.642-1.371,1.765,1.765,0,0,0-.117-.7,1.449,1.449,0,0,0-.379-.554,1.9,1.9,0,0,0-.729-.379,4.033,4.033,0,0,0-1.108-.117h-2.362v3.645h2.333Z" transform="translate(-266.911 -141.196)"/>
      <path id="Path_50" data-name="Path 50" class="cls-1" d="M316.625,142.45a6.4,6.4,0,0,1,1.954-1.312,6.045,6.045,0,0,1,2.333-.437,4.081,4.081,0,0,1,1.633.292,3.554,3.554,0,0,1,1.2.846,3.2,3.2,0,0,1,.729,1.312,5.274,5.274,0,0,1,.262,1.691v7h-.846a.974.974,0,0,1-.437-.087.666.666,0,0,1-.233-.35l-.2-1.05c-.292.262-.583.5-.846.7a4.351,4.351,0,0,1-.875.525,3.4,3.4,0,0,1-.962.321,4.7,4.7,0,0,1-1.137.117,3.951,3.951,0,0,1-1.2-.175,2.94,2.94,0,0,1-.992-.525,2.371,2.371,0,0,1-.671-.9,2.885,2.885,0,0,1-.233-1.283,2.472,2.472,0,0,1,.35-1.254,3.017,3.017,0,0,1,1.167-1.079,7.243,7.243,0,0,1,2.1-.758,15.444,15.444,0,0,1,3.15-.35v-.846a2.861,2.861,0,0,0-.554-1.925,1.986,1.986,0,0,0-1.6-.642,3.568,3.568,0,0,0-1.2.175,4.568,4.568,0,0,0-.846.408c-.233.146-.437.292-.612.408a.93.93,0,0,1-.5.175.439.439,0,0,1-.321-.117.689.689,0,0,1-.233-.262Zm6.241,4.462a16.033,16.033,0,0,0-2.275.2,6.835,6.835,0,0,0-1.516.437,1.97,1.97,0,0,0-.846.642,1.364,1.364,0,0,0-.262.817,2.065,2.065,0,0,0,.146.758,1.731,1.731,0,0,0,.379.525,1.378,1.378,0,0,0,.583.292,2.876,2.876,0,0,0,.7.087,3.873,3.873,0,0,0,1.721-.408,2.93,2.93,0,0,0,.7-.467c.2-.175.437-.379.671-.612Z" transform="translate(-289.154 -140.7)"/>
      <path id="Path_51" data-name="Path 51" class="cls-1" d="M361.5,141.4v10.965h-1.925v-5.133h-5.249v5.133H352.4V141.4h1.925v4.374h5.249V141.4Z" transform="translate(-314.868 -141.196)"/>
      <path id="Path_52" data-name="Path 52" class="cls-1" d="M394.67,145.687a5.822,5.822,0,0,1,1.9.262,3.1,3.1,0,0,1,1.254.729,2.5,2.5,0,0,1,.671,1.05,3.741,3.741,0,0,1-.058,2.6,3.45,3.45,0,0,1-.758,1.079,4,4,0,0,1-1.254.7,5.2,5.2,0,0,1-1.721.262h-4.2V141.4h1.837v4.287Zm.029,5.249a3.588,3.588,0,0,0,1.021-.146,1.65,1.65,0,0,0,.7-.408,1.738,1.738,0,0,0,.408-.612,2.227,2.227,0,0,0,.146-.787,2.013,2.013,0,0,0-.117-.729,1.419,1.419,0,0,0-.408-.612,1.766,1.766,0,0,0-.729-.408,3.709,3.709,0,0,0-1.079-.146h-2.333v3.849Z" transform="translate(-341.857 -141.196)"/>
    </g>
  </g>
</svg>
