<svg id="Group_55" data-name="Group 55" xmlns="http://www.w3.org/2000/svg" viewBox="0 0 29.463 29.463">
  <defs>
    <style>
      .cls-1 {
        fill: #105d75;
      }
    </style>
  </defs>
  <path id="Path_60" data-name="Path 60" class="cls-1" d="M29.463,14.731A14.731,14.731,0,1,0,14.731,29.463,14.732,14.732,0,0,0,29.463,14.731Zm-28.124,0A13.392,13.392,0,1,1,14.731,28.124,13.392,13.392,0,0,1,1.339,14.731Z"/>
  <path id="Path_61" data-name="Path 61" class="cls-1" d="M228.346,146.839v-8.5h2.806l.443-2.818h-3.249v-1.413c0-.735.241-1.437,1.3-1.437h2.109v-2.812h-2.994c-2.518,0-3.2,1.658-3.2,3.956v1.7h-1.728v2.819h1.728v8.5Z" transform="translate(-213.05 -123.604)"/>
</svg>
