<svg id="Layer_1" data-name="Layer 1" xmlns="http://www.w3.org/2000/svg" viewBox="0 0 521.69 206.89"><defs><style>.cls-1{fill:#105d75;}.cls-2{fill:#e8573e;}</style></defs><title>logo_RG_oct_18-01</title><path class="cls-1" d="M91,146.2c-26.91,0-55.51-7.08-55.51-20.2S64.13,105.8,91,105.8s55.51,7.08,55.51,20.2S118,146.2,91,146.2Zm0-36.4c-30.35,0-51.51,8.54-51.51,16.2S60.69,142.2,91,142.2s51.51-8.54,51.51-16.2S121.4,109.8,91,109.8Z"/><path class="cls-1" d="M91,158.29c-26.58,0-51.7-4-68.9-10.94C7.66,141.49,0,134.11,0,126s7.65-15.49,22.14-21.34a2,2,0,0,1,1.5,3.71C11,113.48,4,119.74,4,126s7,12.52,19.64,17.64C40.39,150.4,65,154.29,91,154.29c27.16,0,52.35-4.14,69.12-11.37,11.56-5,17.92-11,17.92-16.92s-6.45-12-18.15-17a2,2,0,0,1,1.57-3.68C175,111,182.09,118.21,182.09,126s-7,14.87-20.34,20.59C144.49,154,118.72,158.29,91,158.29Z"/><path class="cls-1" d="M94.71,172.56A276.06,276.06,0,0,1,39,167.24a2,2,0,1,1,.82-3.91c18,3.77,38.94,5.56,60.62,5.18,7.48-.13,15-.52,22.22-1.16a2,2,0,1,1,.35,4c-7.36.65-14.93,1-22.5,1.18Q97.6,172.56,94.71,172.56Z"/><path class="cls-1" d="M95.06,189.15a271.8,271.8,0,0,1-28.42-1.42,2,2,0,0,1,.42-4c20.72,2.19,44.59,1.8,69-1.12a2,2,0,1,1,.48,4A350.94,350.94,0,0,1,95.06,189.15Z"/><path class="cls-1" d="M96.32,206.9c-2.38,0-4.85-.12-7.34-.36a2,2,0,0,1,.38-4,64.77,64.77,0,0,0,14.21-.1,2,2,0,0,1,.51,4A61,61,0,0,1,96.32,206.9Z"/><path class="cls-2" d="M122.83,124.08c-.76-6.3-1.71-12.34-2.82-18q-.18-.9-.36-1.79C114.27,78,105.3,60.94,95,58.13V33.52h0s0-.07,0-.11V1.31h0C94.88.58,93.54,0,91.89,0s-3,.58-3,1.31h0v32.1h0s0,.07,0,.11h0V58.12c-10.35,2.8-19.33,19.82-24.71,46.14q-.18.89-.36,1.79c-1.11,5.69-2.06,11.73-2.82,18q-.13,1-.25,2.1c1,5.89,14.6,10.56,31.18,10.56s30.14-4.66,31.18-10.56Q123,125.13,122.83,124.08ZM91.9,132.74c-17,0-25.92-4.71-27.11-6.91l.15-1.27c.4-3.3.85-6.54,1.35-9.69A40.29,40.29,0,0,0,79,119a78.59,78.59,0,0,0,25.74,0,40.29,40.29,0,0,0,12.74-4.12c.5,3.15,1,6.39,1.35,9.68l.15,1.27C117.82,128,108.93,132.74,91.9,132.74Z"/><path class="cls-1" d="M238.45,61a29.43,29.43,0,0,1,8.77,1.17,16.85,16.85,0,0,1,6.18,3.32,13.39,13.39,0,0,1,3.65,5.19,18.31,18.31,0,0,1,1.21,6.79,17.3,17.3,0,0,1-1.3,6.79,14.61,14.61,0,0,1-3.8,5.3A17.69,17.69,0,0,1,247,93a26.64,26.64,0,0,1-8.51,1.24h-8.53v19.88h-7.16V61Zm0,27.56a16.58,16.58,0,0,0,5.43-.82,11.36,11.36,0,0,0,4-2.28,9.37,9.37,0,0,0,2.43-3.5,12,12,0,0,0,.82-4.49A10.2,10.2,0,0,0,248,69.52q-3.13-2.85-9.51-2.86h-8.53V88.55Z"/><path class="cls-1" d="M276.15,91.3a20,20,0,0,1,6.55.93A11.52,11.52,0,0,1,287,94.71a9.06,9.06,0,0,1,2.32,3.6,12.86,12.86,0,0,1,.71,4.23,12,12,0,0,1-.89,4.66,9.94,9.94,0,0,1-2.63,3.67,12.5,12.5,0,0,1-4.3,2.41,18.27,18.27,0,0,1-5.9.87H261.83V76.57h6.31V91.3Zm.11,18a10.74,10.74,0,0,0,3.47-.5,6.61,6.61,0,0,0,2.43-1.41,5.84,5.84,0,0,0,1.45-2.13,7.23,7.23,0,0,0,.48-2.67,7.56,7.56,0,0,0-.41-2.5A5.12,5.12,0,0,0,282.32,98a6.72,6.72,0,0,0-2.47-1.41,11.57,11.57,0,0,0-3.71-.52h-8v13.21Zm28.6-32.75v37.57h-6.6V76.57Z"/><path class="cls-1" d="M331.11,67.74a18.07,18.07,0,0,0-6.47,1.67A12.81,12.81,0,0,0,320.17,73a15.61,15.61,0,0,0-2.67,5.47,31.12,31.12,0,0,0-1,7.2,12.48,12.48,0,0,1,2.3-3.21A14.42,14.42,0,0,1,322,80a16,16,0,0,1,4-1.56,18.53,18.53,0,0,1,4.54-.54,16.53,16.53,0,0,1,6.73,1.32A14.29,14.29,0,0,1,342.3,83a16.63,16.63,0,0,1,3.21,5.8,24,24,0,0,1,1.11,7.51,21.35,21.35,0,0,1-1.28,7.59,15.88,15.88,0,0,1-9.35,9.48,20.28,20.28,0,0,1-7.44,1.3,19.7,19.7,0,0,1-7.08-1.26,13.76,13.76,0,0,1-5.71-4.15,21.07,21.07,0,0,1-3.8-7.62A41.93,41.93,0,0,1,310.57,90a51.63,51.63,0,0,1,1.08-10.91,25.57,25.57,0,0,1,3.47-8.64,18.53,18.53,0,0,1,6.19-5.92,21.78,21.78,0,0,1,9.25-2.73L344,60.62l.37,3.41A3.19,3.19,0,0,1,344,66a1.82,1.82,0,0,1-1.59.85Zm-2.56,42q5.56,0,8.4-3.54t2.84-9.92q0-6.34-2.73-9.9t-8.18-3.56a12.83,12.83,0,0,0-4.75.83,9.54,9.54,0,0,0-3.58,2.43A10.93,10.93,0,0,0,318.3,90a16.49,16.49,0,0,0-.8,5.34,23.74,23.74,0,0,0,.71,6,13,13,0,0,0,2.1,4.52,9.22,9.22,0,0,0,3.45,2.84A11,11,0,0,0,328.56,109.77Z"/><path class="cls-1" d="M350.71,81.87a21.46,21.46,0,0,1,6.71-4.49,20.74,20.74,0,0,1,8-1.48,14.25,14.25,0,0,1,5.6,1,11.48,11.48,0,0,1,4.12,2.89,12.25,12.25,0,0,1,2.52,4.49,18.7,18.7,0,0,1,.85,5.79v24h-2.93a2.87,2.87,0,0,1-1.48-.32,2.14,2.14,0,0,1-.82-1.24l-.74-3.56a37,37,0,0,1-2.89,2.43,16.61,16.61,0,0,1-3,1.78,16.17,16.17,0,0,1-3.32,1.11,18.15,18.15,0,0,1-3.91.39,13.53,13.53,0,0,1-4.12-.61,9.51,9.51,0,0,1-3.36-1.84,8.63,8.63,0,0,1-2.26-3.1,10.84,10.84,0,0,1-.83-4.43,8.27,8.27,0,0,1,1.22-4.28,10.73,10.73,0,0,1,4-3.65,26.08,26.08,0,0,1,7.16-2.62A54.67,54.67,0,0,1,372,93V90.11q0-4.38-1.89-6.62a6.82,6.82,0,0,0-5.53-2.24,11.88,11.88,0,0,0-4.1.61,15.39,15.39,0,0,0-2.86,1.37q-1.21.76-2.08,1.37a3,3,0,0,1-1.72.61,1.89,1.89,0,0,1-1.15-.35,3.21,3.21,0,0,1-.82-.87ZM372,97.23a54.9,54.9,0,0,0-7.77.72,22.05,22.05,0,0,0-5.23,1.5,7.21,7.21,0,0,0-2.93,2.19,4.7,4.7,0,0,0-.91,2.82,6.22,6.22,0,0,0,.48,2.56,4.74,4.74,0,0,0,1.32,1.76,5.25,5.25,0,0,0,2,1,9,9,0,0,0,2.43.32,13.46,13.46,0,0,0,3.19-.35,12,12,0,0,0,2.73-1,15.39,15.39,0,0,0,2.45-1.59A21.14,21.14,0,0,0,372,105Z"/><path class="cls-1" d="M423.24,109.14V125a2,2,0,0,1-.54,1.5,1.88,1.88,0,0,1-1.39.54h-4V114.14h-32.2V76.57h6.64v32.57h18V76.57h6.64v32.57Z"/><path class="cls-1" d="M449.25,78.43a4.17,4.17,0,0,1,1.37-1.34,3.44,3.44,0,0,1,1.82-.52h5.16l-9.75,14.32A11.26,11.26,0,0,1,446,93.13a6.72,6.72,0,0,1-2.37,1.35,7.82,7.82,0,0,1,3,1.5,10.3,10.3,0,0,1,2.19,2.61l9.87,15.54h-4.6a4.52,4.52,0,0,1-4.41-2.3l-7.31-11.68a5.71,5.71,0,0,0-5.23-2.89h-4v16.91h-6.64V76.57h6.64V92.82h3.56a5.26,5.26,0,0,0,4.64-2.52Z"/><path class="cls-1" d="M460.59,81.87a21.46,21.46,0,0,1,6.71-4.49,20.74,20.74,0,0,1,8-1.48,14.25,14.25,0,0,1,5.6,1A11.48,11.48,0,0,1,485,79.83a12.25,12.25,0,0,1,2.52,4.49,18.7,18.7,0,0,1,.85,5.79v24h-2.93a2.87,2.87,0,0,1-1.48-.32,2.14,2.14,0,0,1-.82-1.24L482.4,109a37,37,0,0,1-2.89,2.43,16.61,16.61,0,0,1-3,1.78,16.17,16.17,0,0,1-3.32,1.11,18.15,18.15,0,0,1-3.91.39,13.53,13.53,0,0,1-4.12-.61,9.51,9.51,0,0,1-3.36-1.84,8.63,8.63,0,0,1-2.26-3.1,10.84,10.84,0,0,1-.83-4.43,8.27,8.27,0,0,1,1.22-4.28,10.73,10.73,0,0,1,4-3.65,26.08,26.08,0,0,1,7.16-2.62A54.67,54.67,0,0,1,481.92,93V90.11q0-4.38-1.89-6.62a6.82,6.82,0,0,0-5.53-2.24,11.88,11.88,0,0,0-4.1.61,15.39,15.39,0,0,0-2.86,1.37q-1.21.76-2.08,1.37a3,3,0,0,1-1.72.61,1.89,1.89,0,0,1-1.15-.35,3.21,3.21,0,0,1-.82-.87Zm21.33,15.36a54.9,54.9,0,0,0-7.77.72,22.05,22.05,0,0,0-5.23,1.5,7.21,7.21,0,0,0-2.93,2.19,4.7,4.7,0,0,0-.91,2.82,6.22,6.22,0,0,0,.48,2.56,4.74,4.74,0,0,0,1.32,1.76,5.25,5.25,0,0,0,2,1,9,9,0,0,0,2.43.32,13.46,13.46,0,0,0,3.19-.35,12,12,0,0,0,2.73-1,15.39,15.39,0,0,0,2.45-1.59,21.13,21.13,0,0,0,2.28-2.11Z"/><path class="cls-1" d="M521.69,76.57v37.57h-6.31V98.31h-2.89a7.45,7.45,0,0,0-1.72.17,4.34,4.34,0,0,0-1.19.46,3.17,3.17,0,0,0-.87.76q-.37.46-.78,1.06l-8.23,11.09a4.39,4.39,0,0,1-1.54,1.74,5.15,5.15,0,0,1-2.65.56h-4.6L501.81,100a6.5,6.5,0,0,1,3.52-3,15.49,15.49,0,0,1-4.82-1.33,11,11,0,0,1-3.21-2.28,8.12,8.12,0,0,1-1.8-2.91,9.75,9.75,0,0,1-.56-3.23,10.46,10.46,0,0,1,.76-3.86A9.07,9.07,0,0,1,498.14,80a12.8,12.8,0,0,1,4.32-2.45,19.24,19.24,0,0,1,6.44-.95Zm-6.31,17.54V81h-6.31a9.15,9.15,0,0,0-3.56.61,6.59,6.59,0,0,0-2.32,1.56A5.59,5.59,0,0,0,502,85.31a7.64,7.64,0,0,0-.37,2.32,5.69,5.69,0,0,0,2.23,4.77,9.69,9.69,0,0,0,6.08,1.73Z"/><path class="cls-1" d="M254.39,41.72H253.3a1.24,1.24,0,0,1-.65-.17,1.38,1.38,0,0,1-.46-.44L245.07,32a3.32,3.32,0,0,0-1-.92,3.06,3.06,0,0,0-1.48-.31h-2.9V41.72h-1.57V30.78h-2.89a3.11,3.11,0,0,0-1.5.31,3.17,3.17,0,0,0-1,.92l-7.12,9.09a1.39,1.39,0,0,1-.46.44,1.24,1.24,0,0,1-.65.17h-1.09l7.73-10.1a4,4,0,0,1,1-1.06,3.69,3.69,0,0,1,1.27-.56,3.14,3.14,0,0,1-1.14-.54,5.06,5.06,0,0,1-.91-1L223.74,19H225a1,1,0,0,1,.51.14,1.2,1.2,0,0,1,.4.4l7,8.74a3.46,3.46,0,0,0,.58.6,2.6,2.6,0,0,0,.61.36,2.76,2.76,0,0,0,.65.18,5.2,5.2,0,0,0,.74,0h2.58V19h1.57V29.5h2.58a5.37,5.37,0,0,0,.75,0,2.75,2.75,0,0,0,.66-.18,2.45,2.45,0,0,0,.6-.36,3.64,3.64,0,0,0,.58-.6l7-8.74a1.19,1.19,0,0,1,.4-.4,1,1,0,0,1,.53-.14H254l-7.55,9.48a4.72,4.72,0,0,1-.9,1,3.14,3.14,0,0,1-1.14.54,3.51,3.51,0,0,1,1.26.57,4.25,4.25,0,0,1,1,1Z"/><path class="cls-1" d="M274.52,19V41.72h-1.65V23.09q0-.51,0-1.05t.09-1.11q-.22.5-.45.91t-.45.76L259,41.21a1.32,1.32,0,0,1-.33.36.71.71,0,0,1-.44.15H257V19h1.65V37.66c0,.34,0,.69,0,1s0,.72-.08,1.09q.21-.48.43-.89t.45-.76l13.12-18.6a1.37,1.37,0,0,1,.32-.36.68.68,0,0,1,.43-.15Z"/><path class="cls-1" d="M296.16,41.72h-1.65V20.34h-9.12q-.21,4.51-.56,7.87T284,34a23.35,23.35,0,0,1-1.11,3.94,9,9,0,0,1-1.36,2.43,4.12,4.12,0,0,1-1.61,1.23,4.9,4.9,0,0,1-1.83.34,3.76,3.76,0,0,1-.9-.1c-.26-.06-.38-.16-.38-.27v-1h1a3.29,3.29,0,0,0,1.43-.33,3.54,3.54,0,0,0,1.31-1.2,9.75,9.75,0,0,0,1.15-2.4,26.29,26.29,0,0,0,1-3.91q.42-2.38.74-5.74t.5-7.91h12.33Z"/><path class="cls-1" d="M321.12,30.37a13.78,13.78,0,0,1-.79,4.77,10.58,10.58,0,0,1-2.21,3.66,9.77,9.77,0,0,1-3.42,2.34,12.13,12.13,0,0,1-8.8,0,9.79,9.79,0,0,1-3.42-2.34,10.58,10.58,0,0,1-2.21-3.66,13.78,13.78,0,0,1-.79-4.77,13.73,13.73,0,0,1,.79-4.75A10.58,10.58,0,0,1,302.49,22a9.91,9.91,0,0,1,3.42-2.35,11.26,11.26,0,0,1,4.39-.83,11.41,11.41,0,0,1,4.4.83,9.73,9.73,0,0,1,3.42,2.35,10.66,10.66,0,0,1,2.21,3.66A13.73,13.73,0,0,1,321.12,30.37Zm-1.7,0a12.94,12.94,0,0,0-.66-4.27,9.12,9.12,0,0,0-1.86-3.21,8,8,0,0,0-2.89-2,10.22,10.22,0,0,0-7.43,0,8.1,8.1,0,0,0-2.89,2,9.15,9.15,0,0,0-1.88,3.21,12.79,12.79,0,0,0-.66,4.27,12.77,12.77,0,0,0,.66,4.27,9.17,9.17,0,0,0,1.88,3.2,8,8,0,0,0,2.89,2,10.34,10.34,0,0,0,7.43,0,8,8,0,0,0,2.89-2,9.14,9.14,0,0,0,1.86-3.2A12.93,12.93,0,0,0,319.42,30.37Z"/><path class="cls-1" d="M342,19V41.72h-1.65V23.09c0-.34,0-.69,0-1.05s0-.73.09-1.11q-.23.5-.45.91t-.45.76l-13.1,18.62a1.31,1.31,0,0,1-.33.36.71.71,0,0,1-.44.15h-1.2V19h1.65V37.66c0,.34,0,.69,0,1s0,.72-.08,1.09q.21-.48.43-.89t.45-.76L340,19.54a1.39,1.39,0,0,1,.32-.36.68.68,0,0,1,.43-.15Zm-8.82-2.52a2.66,2.66,0,0,0,2.08-.72,3.49,3.49,0,0,0,.64-2.34h.87a.33.33,0,0,1,.28.15.66.66,0,0,1,.1.38,3.09,3.09,0,0,1-1,2.43,5.45,5.45,0,0,1-6,0,3.08,3.08,0,0,1-1-2.43.62.62,0,0,1,.11-.38.34.34,0,0,1,.29-.15h.85a3.48,3.48,0,0,0,.64,2.34A2.68,2.68,0,0,0,333.14,16.51Z"/><path class="cls-1" d="M375.5,41.72h-1.41a.91.91,0,0,1-.53-.14,1.84,1.84,0,0,1-.43-.46l-7.46-9.21a5.41,5.41,0,0,0-.44-.5,1.92,1.92,0,0,0-.48-.35,2.22,2.22,0,0,0-.6-.2,4.23,4.23,0,0,0-.79-.06h-2.93V41.72h-1.65V19h1.65V29.5H363a5,5,0,0,0,.73,0,2.72,2.72,0,0,0,.63-.17,2.2,2.2,0,0,0,.57-.34,4.13,4.13,0,0,0,.56-.58l7.12-8.82a1.38,1.38,0,0,1,.39-.37.92.92,0,0,1,.51-.14h1.33l-7.73,9.61a4,4,0,0,1-.88.87,3.7,3.7,0,0,1-1.08.5,3,3,0,0,1,1.21.54,4.74,4.74,0,0,1,1,1Z"/><path class="cls-1" d="M396.51,30.37a13.78,13.78,0,0,1-.79,4.77,10.58,10.58,0,0,1-2.21,3.66,9.76,9.76,0,0,1-3.42,2.34,12.13,12.13,0,0,1-8.8,0,9.78,9.78,0,0,1-3.42-2.34,10.58,10.58,0,0,1-2.21-3.66,13.77,13.77,0,0,1-.79-4.77,13.73,13.73,0,0,1,.79-4.75A10.58,10.58,0,0,1,377.88,22a9.89,9.89,0,0,1,3.42-2.35,11.26,11.26,0,0,1,4.39-.83,11.41,11.41,0,0,1,4.4.83,9.72,9.72,0,0,1,3.42,2.35,10.66,10.66,0,0,1,2.21,3.66A13.73,13.73,0,0,1,396.51,30.37Zm-1.7,0a12.94,12.94,0,0,0-.66-4.27,9.12,9.12,0,0,0-1.86-3.21,8,8,0,0,0-2.89-2,10.22,10.22,0,0,0-7.42,0,8.09,8.09,0,0,0-2.9,2,9.17,9.17,0,0,0-1.88,3.21,12.82,12.82,0,0,0-.66,4.27,12.8,12.8,0,0,0,.66,4.27,9.18,9.18,0,0,0,1.88,3.2,8,8,0,0,0,2.9,2,10.34,10.34,0,0,0,7.42,0,7.93,7.93,0,0,0,2.89-2,9.13,9.13,0,0,0,1.86-3.2A12.93,12.93,0,0,0,394.81,30.37Z"/><path class="cls-1" d="M422.26,19V41.72h-1.43V22.38a8.56,8.56,0,0,1,0-.88l-8.93,15.86a.7.7,0,0,1-.64.42H411a.7.7,0,0,1-.64-.42l-9.17-15.89q0,.48,0,.91V41.72h-1.44V19H401a1.06,1.06,0,0,1,.35,0,.59.59,0,0,1,.26.26l9.16,15.78a6.51,6.51,0,0,1,.42,1q.1-.26.21-.51c.08-.16.16-.32.24-.47l8.9-15.76a.57.57,0,0,1,.26-.26,1.13,1.13,0,0,1,.36,0Z"/><path class="cls-1" d="M443.44,41.72h-1.65V20.34H428.61V41.72H427V19h16.49Z"/><path class="cls-1" d="M465.09,41.72h-1.65V20.34h-9.12q-.21,4.51-.56,7.87T452.91,34a23.3,23.3,0,0,1-1.11,3.94,9,9,0,0,1-1.36,2.43,4.13,4.13,0,0,1-1.61,1.23,4.9,4.9,0,0,1-1.83.34,3.75,3.75,0,0,1-.9-.1c-.26-.06-.39-.16-.39-.27v-1h1a3.29,3.29,0,0,0,1.43-.33,3.53,3.53,0,0,0,1.31-1.2,9.72,9.72,0,0,0,1.15-2.4,26.29,26.29,0,0,0,1-3.91q.42-2.38.74-5.74t.5-7.91h12.33Z"/><path class="cls-1" d="M483.42,40.36l0,1.36h-13.6V19h13.6v1.36H471.44v9.17h9.94v1.33h-9.94v9.46Z"/><path class="cls-1" d="M503.28,41.72h-1.41a.91.91,0,0,1-.53-.14,1.84,1.84,0,0,1-.43-.46l-7.46-9.21a5.41,5.41,0,0,0-.44-.5,1.93,1.93,0,0,0-.48-.35,2.23,2.23,0,0,0-.6-.2,4.23,4.23,0,0,0-.79-.06H488.2V41.72h-1.65V19h1.65V29.5h2.61a5,5,0,0,0,.73,0,2.7,2.7,0,0,0,.62-.17,2.18,2.18,0,0,0,.57-.34,4.12,4.12,0,0,0,.56-.58l7.12-8.82a1.37,1.37,0,0,1,.39-.37.92.92,0,0,1,.51-.14h1.33l-7.73,9.61a4,4,0,0,1-.88.87A3.7,3.7,0,0,1,493,30a3,3,0,0,1,1.21.54,4.77,4.77,0,0,1,1,1Z"/><path class="cls-1" d="M520.52,37.9a.37.37,0,0,1,.27.11l.64.69a10.87,10.87,0,0,1-1.53,1.35,9.34,9.34,0,0,1-1.81,1,10.63,10.63,0,0,1-2.16.66,13.47,13.47,0,0,1-2.59.23,11,11,0,0,1-4.32-.83,9.68,9.68,0,0,1-3.38-2.34,10.59,10.59,0,0,1-2.19-3.66,14,14,0,0,1-.78-4.78,13.29,13.29,0,0,1,.8-4.71A10.83,10.83,0,0,1,505.72,22a10,10,0,0,1,3.46-2.37,11.47,11.47,0,0,1,4.46-.84,11,11,0,0,1,4.12.72,11.11,11.11,0,0,1,3.27,2l-.5.72a.45.45,0,0,1-.4.19,1.29,1.29,0,0,1-.63-.35,8.25,8.25,0,0,0-1.2-.78,10.25,10.25,0,0,0-1.92-.78,9.41,9.41,0,0,0-2.75-.35,9.75,9.75,0,0,0-3.76.71,8.3,8.3,0,0,0-2.93,2A9.3,9.3,0,0,0,505,26.12a12.36,12.36,0,0,0-.69,4.25,12.37,12.37,0,0,0,.7,4.3,9.41,9.41,0,0,0,1.92,3.2,8.28,8.28,0,0,0,2.88,2,9.14,9.14,0,0,0,3.58.7,13.14,13.14,0,0,0,2.17-.16,8.49,8.49,0,0,0,1.76-.48,7.89,7.89,0,0,0,1.49-.79A11.3,11.3,0,0,0,520.2,38l.16-.1A.35.35,0,0,1,520.52,37.9Z"/><path class="cls-1" d="M248,146.42H230.24V179H223.6V141.38H248Z"/><path class="cls-1" d="M250.56,146.68a21.46,21.46,0,0,1,6.71-4.49,20.74,20.74,0,0,1,8-1.48,14.25,14.25,0,0,1,5.6,1,11.48,11.48,0,0,1,4.12,2.89,12.25,12.25,0,0,1,2.52,4.49,18.7,18.7,0,0,1,.85,5.79v24h-2.93a2.87,2.87,0,0,1-1.48-.32,2.14,2.14,0,0,1-.82-1.24l-.74-3.56a37,37,0,0,1-2.89,2.43,16.61,16.61,0,0,1-3,1.78,16.18,16.18,0,0,1-3.32,1.11,18.16,18.16,0,0,1-3.91.39,13.53,13.53,0,0,1-4.12-.61,9.51,9.51,0,0,1-3.36-1.84,8.63,8.63,0,0,1-2.26-3.1,10.84,10.84,0,0,1-.83-4.43,8.28,8.28,0,0,1,1.22-4.28,10.73,10.73,0,0,1,4-3.65,26.08,26.08,0,0,1,7.16-2.62,54.66,54.66,0,0,1,10.83-1.17v-2.93q0-4.38-1.89-6.62a6.82,6.82,0,0,0-5.53-2.24,11.87,11.87,0,0,0-4.1.61,15.39,15.39,0,0,0-2.86,1.37q-1.21.76-2.08,1.37a3,3,0,0,1-1.72.61,1.89,1.89,0,0,1-1.15-.35,3.21,3.21,0,0,1-.82-.87ZM271.89,162a54.89,54.89,0,0,0-7.77.72,22,22,0,0,0-5.23,1.5,7.21,7.21,0,0,0-2.93,2.19,4.7,4.7,0,0,0-.91,2.82,6.22,6.22,0,0,0,.48,2.56,4.74,4.74,0,0,0,1.32,1.76,5.25,5.25,0,0,0,2,1,9,9,0,0,0,2.43.32,13.46,13.46,0,0,0,3.19-.35,12,12,0,0,0,2.73-1,15.38,15.38,0,0,0,2.45-1.59,21.14,21.14,0,0,0,2.28-2.11Z"/><path class="cls-1" d="M298.69,141.38a22.1,22.1,0,0,1,6,.71,12.29,12.29,0,0,1,4.08,1.91,7.38,7.38,0,0,1,2.34,2.84,8.33,8.33,0,0,1,.74,3.49,10.55,10.55,0,0,1-.33,2.56,7.94,7.94,0,0,1-1.17,2.56,8.54,8.54,0,0,1-2.26,2.21,11.22,11.22,0,0,1-3.58,1.54,12.38,12.38,0,0,1,6.64,3,7.83,7.83,0,0,1,2.34,5.92,9.86,9.86,0,0,1-1.09,4.77,10,10,0,0,1-3,3.39,13.37,13.37,0,0,1-4.47,2,21.72,21.72,0,0,1-5.49.67H284.93V141.38Zm-7.42,4.45v11.79h7.23a9.5,9.5,0,0,0,3-.46,7.29,7.29,0,0,0,2.39-1.3,5.82,5.82,0,0,0,2.11-4.58,5.7,5.7,0,0,0-.37-2,4.28,4.28,0,0,0-1.26-1.74,6.73,6.73,0,0,0-2.34-1.22,11.82,11.82,0,0,0-3.56-.46Zm8.09,28.49a9.12,9.12,0,0,0,5.86-1.72,5.74,5.74,0,0,0,2.15-4.73,6.92,6.92,0,0,0-.41-2.43,4.73,4.73,0,0,0-1.33-1.91,6.36,6.36,0,0,0-2.47-1.26,13.72,13.72,0,0,0-3.76-.45h-8.12v12.5Z"/><path class="cls-1" d="M317.93,146.68a21.46,21.46,0,0,1,6.71-4.49,20.74,20.74,0,0,1,8-1.48,14.25,14.25,0,0,1,5.6,1,11.48,11.48,0,0,1,4.12,2.89,12.25,12.25,0,0,1,2.52,4.49,18.71,18.71,0,0,1,.85,5.79v24h-2.93a2.87,2.87,0,0,1-1.48-.32,2.14,2.14,0,0,1-.82-1.24l-.74-3.56a37,37,0,0,1-2.89,2.43,16.61,16.61,0,0,1-3,1.78,16.18,16.18,0,0,1-3.32,1.11,18.16,18.16,0,0,1-3.91.39,13.53,13.53,0,0,1-4.12-.61,9.51,9.51,0,0,1-3.36-1.84,8.63,8.63,0,0,1-2.26-3.1,10.84,10.84,0,0,1-.83-4.43,8.27,8.27,0,0,1,1.22-4.28,10.73,10.73,0,0,1,4-3.65,26.08,26.08,0,0,1,7.16-2.62,54.66,54.66,0,0,1,10.83-1.17v-2.93q0-4.38-1.89-6.62a6.82,6.82,0,0,0-5.53-2.24,11.88,11.88,0,0,0-4.1.61,15.39,15.39,0,0,0-2.86,1.37q-1.21.76-2.08,1.37a3,3,0,0,1-1.72.61,1.89,1.89,0,0,1-1.15-.35,3.21,3.21,0,0,1-.82-.87ZM339.26,162a54.89,54.89,0,0,0-7.77.72,22,22,0,0,0-5.23,1.5,7.21,7.21,0,0,0-2.93,2.19,4.7,4.7,0,0,0-.91,2.82,6.22,6.22,0,0,0,.48,2.56,4.74,4.74,0,0,0,1.32,1.76,5.25,5.25,0,0,0,2,1,9,9,0,0,0,2.43.32,13.46,13.46,0,0,0,3.19-.35,12,12,0,0,0,2.73-1,15.38,15.38,0,0,0,2.45-1.59,21.14,21.14,0,0,0,2.28-2.11Z"/><path class="cls-1" d="M383.6,141.38V179H377V161.37h-18V179H352.3V141.38h6.64v15h18v-15Z"/><path class="cls-1" d="M404.77,156.1a20,20,0,0,1,6.55.93,11.52,11.52,0,0,1,4.26,2.49,9.06,9.06,0,0,1,2.32,3.6,12.86,12.86,0,0,1,.71,4.23,12,12,0,0,1-.89,4.66,9.94,9.94,0,0,1-2.63,3.67,12.51,12.51,0,0,1-4.3,2.41,18.28,18.28,0,0,1-5.9.87H390.46V141.38h6.34V156.1Zm.11,18a10.74,10.74,0,0,0,3.47-.5,6.61,6.61,0,0,0,2.43-1.41,5.84,5.84,0,0,0,1.45-2.13,7.23,7.23,0,0,0,.48-2.67,7.56,7.56,0,0,0-.41-2.5,5.12,5.12,0,0,0-1.35-2.06,6.72,6.72,0,0,0-2.47-1.41,11.57,11.57,0,0,0-3.71-.52h-8v13.21Z"/></svg>