<svg xmlns="http://www.w3.org/2000/svg" viewBox="0 0 37.041 37.033">
  <defs>
    <style>
      .cls-1 {
        fill: #105d75;
      }
    </style>
  </defs>
  <g id="phone" transform="translate(0 -0.05)">
    <path id="Path_56" data-name="Path 56" class="cls-1" d="M31.608,5.475A18.514,18.514,0,1,0,5.425,31.658a18.393,18.393,0,0,0,13.091,5.425,17.689,17.689,0,0,0,7.574-1.532,7.962,7.962,0,0,0,4.039-3.833,4.62,4.62,0,0,0-1.166-5.212l-.053-.053a.718.718,0,0,1,.076-.076,2.5,2.5,0,0,0-.015-3.673l-2.637-2.637a2.507,2.507,0,0,0-1.806-.823,2.573,2.573,0,0,0-1.829.815l-1.372,1.372c-.069-.038-.13-.069-.2-.1a4.792,4.792,0,0,1-.45-.244,16.178,16.178,0,0,1-3.871-3.528,9.685,9.685,0,0,1-1.173-1.806c.343-.32.663-.648.975-.968.13-.137.267-.267.4-.4a2.444,2.444,0,0,0,0-3.688l-1.3-1.3c-.152-.152-.3-.3-.442-.45-.29-.3-.587-.6-.907-.9a2.525,2.525,0,0,0-1.791-.777,2.6,2.6,0,0,0-1.814.777l-.015.015L9.106,9.7A3.742,3.742,0,0,0,7.993,12.09a8.674,8.674,0,0,0,.632,3.665,20.946,20.946,0,0,0,3.7,6.187,22.782,22.782,0,0,0,7.59,5.944,12,12,0,0,0,4.313,1.273c.107.008.213.008.32.008a3.863,3.863,0,0,0,2.957-1.273l.03-.03a.914.914,0,0,1,.084-.091l.046.046a2.8,2.8,0,0,1,.77,3.223c-.876,2.08-4.282,4.214-9.921,4.214A16.678,16.678,0,1,1,34.6,23.017a.917.917,0,1,0,1.768.488A18.5,18.5,0,0,0,31.608,5.475ZM26.152,26.652a2.016,2.016,0,0,1-1.6.671,1.857,1.857,0,0,1-.206-.008,10.193,10.193,0,0,1-3.635-1.1,20.957,20.957,0,0,1-6.972-5.464,19.237,19.237,0,0,1-3.4-5.646,6.776,6.776,0,0,1-.526-2.88,1.91,1.91,0,0,1,.587-1.25L12.04,9.346a.855.855,0,0,1,.541-.267.739.739,0,0,1,.511.259l.023.023c.29.267.564.549.853.846.152.152.3.312.457.465l1.3,1.3a.655.655,0,0,1,0,1.1l-.411.411c-.4.4-.777.792-1.189,1.158-.015.008-.023.023-.038.038a1.249,1.249,0,0,0-.312,1.364c.008.023.015.038.023.061A10.706,10.706,0,0,0,15.385,18.7l.008.008a17.832,17.832,0,0,0,4.313,3.924c.206.13.411.236.61.335a4.792,4.792,0,0,1,.45.244.831.831,0,0,0,.084.046,1.313,1.313,0,0,0,.594.145,1.255,1.255,0,0,0,.914-.411L24,21.348a.818.818,0,0,1,.533-.282.744.744,0,0,1,.5.267l.015.015,2.637,2.637a.692.692,0,0,1-.015,1.12l-.008.008c-.175.191-.366.373-.572.572C26.777,25.981,26.457,26.293,26.152,26.652Z" transform="translate(0 0)"/>
  </g>
</svg>
