<svg xmlns="http://www.w3.org/2000/svg" viewBox="0 0 44.875 47.214">
  <defs>
    <style>
      .cls-1 {
        fill: #3d4348;
      }
    </style>
  </defs>
  <g id="printer" transform="translate(-11.95)">
    <g id="Group_76" data-name="Group 76" transform="translate(11.95)">
      <path id="Path_92" data-name="Path 92" class="cls-1" d="M49.848,9.678H48.635v-2.7A6.987,6.987,0,0,0,41.658,0H27.01a6.987,6.987,0,0,0-6.977,6.977v2.7H18.927a6.987,6.987,0,0,0-6.977,6.977V27.908a6.987,6.987,0,0,0,6.977,6.977h1.1V43.73a3.491,3.491,0,0,0,3.484,3.484H45.142a3.491,3.491,0,0,0,3.484-3.484V34.884h1.223a6.987,6.987,0,0,0,6.977-6.977V16.655A6.987,6.987,0,0,0,49.848,9.678Zm-27.183-2.7A4.343,4.343,0,0,1,27,2.642H41.638a4.343,4.343,0,0,1,4.335,4.335v2.7H22.665ZM45.983,43.75a.848.848,0,0,1-.842.842H23.506a.848.848,0,0,1-.842-.842V29.16H45.983Zm8.2-15.833a4.343,4.343,0,0,1-4.335,4.335H48.635V29.16h1.742a1.321,1.321,0,1,0,0-2.642H18.085a1.321,1.321,0,1,0,0,2.642h1.947v3.092H18.927a4.343,4.343,0,0,1-4.335-4.335V16.664a4.343,4.343,0,0,1,4.335-4.335H49.848a4.343,4.343,0,0,1,4.335,4.335Z" transform="translate(-11.95)"/>
      <path id="Path_93" data-name="Path 93" class="cls-1" d="M141.971,340.042h16.821a1.321,1.321,0,0,0,0-2.642H141.971a1.321,1.321,0,0,0,0,2.642Z" transform="translate(-128.056 -304.384)"/>
      <path id="Path_94" data-name="Path 94" class="cls-1" d="M159.8,392.6H142.971a1.321,1.321,0,0,0,0,2.642h16.821a1.321,1.321,0,0,0,.01-2.642Z" transform="translate(-128.959 -354.183)"/>
      <path id="Path_95" data-name="Path 95" class="cls-1" d="M362.052,151.9h-2.681a1.321,1.321,0,1,0,0,2.642h2.681a1.321,1.321,0,0,0,0-2.642Z" transform="translate(-324.183 -137.036)"/>
    </g>
  </g>
</svg>
