<svg id="Ресурс_1" data-name="Ресурс 1" xmlns="http://www.w3.org/2000/svg" viewBox="0 0 21.25 32.341">
  <defs>
    <style>
      .cls-1 {
        fill: #105d75;
      }
    </style>
  </defs>
  <g id="Слой_1" data-name="Слой 1" transform="translate(0)">
    <path id="Path_75" data-name="Path 75" class="cls-1" d="M21.1,30.633l-3.947-7.186a2.337,2.337,0,0,0,1.944-2.3v-10.6a5.131,5.131,0,0,0-3.59-4.89l3.5-4.421A.762.762,0,0,0,18.407,0H3.069a.762.762,0,0,0-.6,1.232L5.887,5.607a5.191,5.191,0,0,0-3.812,5V21.149a2.292,2.292,0,0,0,1.944,2.3L.129,30.633A1.161,1.161,0,0,0,.6,32.223a.883.883,0,0,0,.53.116,1.141,1.141,0,0,0,1-.589l.352-.588H18.743l.353.589a1.094,1.094,0,0,0,1,.589,1.728,1.728,0,0,0,.53-.118A1.16,1.16,0,0,0,21.1,30.633Zm-5.714-9.248A1.709,1.709,0,1,1,17.1,19.675,1.751,1.751,0,0,1,15.386,21.385Zm.177,3.946h-9.9l1-1.826h7.893ZM16.832,1.525,14.114,4.961a.757.757,0,0,0-.164.462H7.491a.758.758,0,0,0-.16-.443l-2.7-3.456ZM7.375,7.954H13.8a3.332,3.332,0,0,1,3.3,3.3v2.827A1.133,1.133,0,0,1,15.918,15.2H5.314a1.118,1.118,0,0,1-1.119-1.119l-.059-2.827A3.281,3.281,0,0,1,7.375,7.954ZM5.844,17.909a1.709,1.709,0,1,1-1.709,1.709A1.709,1.709,0,0,1,5.844,17.909ZM3.429,29.4l1.3-2.3H16.506L17.8,29.4Z" transform="translate(0.01 0)"/>
  </g>
</svg>
