<svg id="underground" xmlns="http://www.w3.org/2000/svg" viewBox="0 0 21.25 26.92">
  <defs>
    <style>
      .cls-1 {
        fill: #105d75;
      }
    </style>
  </defs>
  <g id="Layer_1_21_" transform="translate(0)">
    <path id="Path_74" data-name="Path 74" class="cls-1" d="M82.469,25.212l-3.947-7.186a2.337,2.337,0,0,0,1.944-2.3V5.125A5.128,5.128,0,0,0,75.341,0H68.626a5.191,5.191,0,0,0-5.184,5.184V15.728a2.292,2.292,0,0,0,1.944,2.3L61.5,25.212a1.16,1.16,0,0,0,.471,1.59.875.875,0,0,0,.53.118,1.14,1.14,0,0,0,1-.589l.353-.589H80.113l.353.589a1.093,1.093,0,0,0,1,.589A1.719,1.719,0,0,0,82,26.8,1.16,1.16,0,0,0,82.469,25.212Zm-5.537-5.3h-9.9l1-1.826H75.93Zm-.177-3.947a1.708,1.708,0,1,1,1.708-1.708A1.749,1.749,0,0,1,76.755,15.963ZM65.5,5.832a3.281,3.281,0,0,1,3.24-3.3h6.421a3.331,3.331,0,0,1,3.3,3.3V8.659a1.133,1.133,0,0,1-1.178,1.119h-10.6a1.118,1.118,0,0,1-1.119-1.119L65.5,5.832Zm1.708,6.656A1.708,1.708,0,1,1,65.5,14.2,1.709,1.709,0,0,1,67.212,12.488ZM64.8,23.975l1.3-2.3H77.874l1.3,2.3Z" transform="translate(-61.359)"/>
  </g>
</svg>
